<?xml version="1.0" encoding="UTF-8" standalone="no"?>
<!-- Created with Inkscape (http://www.inkscape.org/) -->

<svg
   width="297mm"
   height="210mm"
   viewBox="0 0 1122.5197 793.70081"
   version="1.1"
   id="svg1"
   xml:space="preserve"
   inkscape:export-batch-path="Imagens/DojoUemura"
   inkscape:export-batch-name=""
   inkscape:version="1.4.2 (ebf0e940d0, 2025-05-08)"
   sodipodi:docname="DOJO.svg"
   xmlns:inkscape="http://www.inkscape.org/namespaces/inkscape"
   xmlns:sodipodi="http://sodipodi.sourceforge.net/DTD/sodipodi-0.dtd"
   xmlns="http://www.w3.org/2000/svg"
   xmlns:svg="http://www.w3.org/2000/svg"><sodipodi:namedview
     id="namedview1"
     pagecolor="#ffffff"
     bordercolor="#000000"
     borderopacity="0.25"
     inkscape:showpageshadow="2"
     inkscape:pageopacity="0.0"
     inkscape:pagecheckerboard="0"
     inkscape:deskcolor="#d1d1d1"
     inkscape:document-units="mm"
     inkscape:zoom="0.22627417"
     inkscape:cx="3595.196"
     inkscape:cy="945.75532"
     inkscape:window-width="1920"
     inkscape:window-height="1011"
     inkscape:window-x="1440"
     inkscape:window-y="32"
     inkscape:window-maximized="1"
     inkscape:current-layer="g30"
     showguides="true"><inkscape:page
       x="0"
       y="0"
       width="1122.5198"
       height="793.70081"
       id="page5"
       margin="0"
       bleed="0" /><inkscape:page
       x="1132.5197"
       y="0"
       width="1122.5197"
       height="793.70081"
       id="page6"
       margin="0"
       bleed="0" /><inkscape:page
       x="7.8398749e-05"
       y="821.20526"
       width="1122.5197"
       height="793.70081"
       id="page15"
       margin="0"
       bleed="0" /><inkscape:page
       x="1132.5198"
       y="821.20526"
       width="1122.5197"
       height="793.70081"
       id="page16"
       margin="0"
       bleed="0" /><inkscape:page
       x="2265.0393"
       y="0"
       width="1122.5197"
       height="793.70081"
       id="page1"
       margin="0"
       bleed="0" /><inkscape:page
       x="2265.0393"
       y="821.20526"
       width="1122.5197"
       height="793.70081"
       id="page2"
       margin="0"
       bleed="0" /><sodipodi:guide
       position="1122.5197,-27.504469"
       orientation="0,-1"
       id="guide3"
       inkscape:locked="false" /><sodipodi:guide
       position="1132.5197,-1.392655e-05"
       orientation="1,0"
       id="guide4"
       inkscape:locked="false" /><inkscape:page
       x="3397.5591"
       y="0"
       width="1122.5197"
       height="793.70081"
       id="page21"
       margin="0"
       bleed="0" /><inkscape:page
       x="3397.5591"
       y="821.20526"
       width="1122.5197"
       height="793.70081"
       id="page27"
       margin="0"
       bleed="0" /><sodipodi:guide
       position="3397.5591,-1.392655e-05"
       orientation="1,0"
       id="guide27"
       inkscape:locked="false" /></sodipodi:namedview><defs
     id="defs1" /><g
     inkscape:label="Camada 1"
     inkscape:groupmode="layer"
     id="layer1"><rect
       style="fill:#f9f9f9;fill-opacity:1;stroke-width:1.88976;stroke-linecap:round;stroke-linejoin:round"
       id="rect25"
       width="1122.5197"
       height="793.70081"
       x="1132.5197"
       y="7.1674758e-06" /><rect
       style="fill:#000000;fill-opacity:1;stroke-width:1.88976;stroke-linecap:round;stroke-linejoin:round"
       id="rect26"
       width="1122.5197"
       height="793.70081"
       x="1132.5198"
       y="821.20526" /><g
       id="g15"
       transform="translate(36.974487,20.688606)"><g
         id="g2"
         transform="matrix(0.85648969,0,0,0.85648969,1179.3182,67.866236)"
         style="fill:#000000;fill-opacity:1"><path
           style="fill:#000000;fill-opacity:1;stroke:none"
           d="m 703.33191,19.442434 c -16.3593,1.302063 -32.6519,6.568664 -49,8.718383 -21.6208,2.843018 -43.3996,2.478577 -65,4.821778 -26.6476,2.890747 -54.3162,-0.226685 -81,-0.544007 -24.0412,-0.285888 -49.3472,-3.146484 -73,-7.607238 -5.2385,-0.987976 -21.9389,-7.779847 -26.3565,-4.321778 -3.593,2.812561 2.6512,11.988221 3.9321,14.932862 2.7749,6.378967 5.589,18.962158 11.6382,22.860351 4.4096,2.841675 11.6923,2.980042 16.7862,3.711426 37.5961,5.398071 76.0734,5.428223 114,5.428223 27.5256,0 55.6615,0.940185 83,-2.285523 14.2669,-1.683349 34.7459,0.283081 47.7253,-6.568664 3.5248,-1.860718 4.6287,-6.759461 6.1358,-10.145813 4.0785,-9.164185 10.6723,-18.812256 11.1389,-29 m -254,51.000001 4.564,13.3966 21.436,2.6034 -1,22.999995 h -33 l -1,20 h 33 l -3,64 25,2 1,-66 h 121 l 1,65 25,-1 c -0.1644,-19.86518 1.5871,-44.73255 -3,-64 h 33 v -20 h -33 l -2,-22.999995 22.0617,-2.6034 3.9383,-13.3966 -118,4 -97,-4 m 166,16 1,22.999995 h -119 l 1,-22.999995 h 117 m -97,122.999995 c -8.1078,-7.9021 -27.2691,-5.35388 -38,-6.08948 -29.8428,-2.04565 -59.6341,-5.83838 -89,-11.71069 -9.068,-1.81336 -18.0672,-3.95301 -27,-6.35108 -3.0559,-0.82037 -7.6983,-2.87872 -9.9722,0.47302 -2.9638,4.36866 -1.0278,14.56952 -1.0278,19.67823 0,6.44049 -2.4042,19.05151 1.179,24.60644 2.8377,4.39923 11.1347,5.39679 15.821,6.50928 15.1832,3.60443 30.5669,5.93121 46,8.15509 9.3592,1.34863 25.1315,6.26868 34,2.31177 23.401,-10.44098 44.6145,-26.66449 68,-37.58258 m -8,-13 c 3.0969,6.50317 10.2826,10.33545 16,14.42132 12.5887,8.99634 26.3947,21.23133 41,26.57868 0,-11.20673 4.5626,-28.38959 0.3966,-38.91052 -1.2886,-3.25422 -4.7884,-5.5271 -7.3966,-7.6651 -16.2273,-13.30188 -32.8429,-1.08075 -50,5.57562 m 101,8 c 0.6617,15.41241 17.1551,19.70782 29,26.80017 8.2411,4.93445 17.7255,13.16186 27,15.70056 6.2376,1.7074 13.7199,-0.66205 20,-1.33484 16.1356,-1.72858 32.0886,-4.38257 48,-7.56555 6.7987,-1.36005 17.1312,-1.91003 22.686,-6.44373 6.8167,-5.56372 3.9724,-29.18762 3.0285,-37.15661 -0.3886,-3.28095 -0.1586,-8.93927 -3.8626,-10.35724 -3.4445,-1.3186 -8.5015,0.86059 -11.8519,1.78088 -8.243,2.26422 -16.6183,4.1001 -25,5.77619 -14.2457,2.84875 -28.5741,5.22351 -43,6.95526 -21.8661,2.62494 -43.9537,5.84491 -66,5.84491 m -52,-19 v 1 l 9,6 1,-5 -10,-2 m 12,2 -1.0146,57 0.015,28 c 10.0471,-2.32556 27.2418,-7.14258 33.297,-16.01544 6.1898,-9.07019 4.8572,-25.63996 3.8727,-35.98456 -0.5559,-5.84101 0.9973,-13.73194 -2.9081,-18.72528 -5.5337,-7.0752 -24.7276,-11.94062 -33.2616,-14.27472 m -131,70 c 3.8119,9.01703 11.5433,16.85754 16.9992,25 1.7171,2.56262 3.9405,7.66205 7.1852,8.54242 5.5968,1.51855 18.2661,-11.38123 22.8156,-14.51691 21.2651,-14.6568 47.6286,-26.19171 67,-43.02551 -8.8073,-5.41455 -21.8512,-19.46381 -32,-20.88196 -6.6083,-0.9234 -18.3213,7.59515 -24,10.74304 -19.6311,10.88214 -38.4256,23.24103 -58,34.13892 m 172,-37 c 0.6352,8.99316 0.9103,19.18426 -1.2392,28 -0.9405,3.85718 -5.4583,9.89044 -3.6281,13.79016 1.5759,3.35785 6.8549,5.55328 9.8673,7.39886 8.4149,5.15546 16.7994,10.31781 25,15.81177 14.0811,9.43366 27.7674,19.6134 41,30.19904 4.3851,3.50793 10.8609,11.10724 17,10.51312 6.6634,-0.64484 12.2832,-9.19116 17,-13.28857 3.6024,-3.12946 8.9175,-6.82343 10.7121,-11.42359 3.0369,-7.78436 -18.4323,-19.68371 -23.7121,-23.62659 -19.2785,-14.39679 -39.5666,-27.14459 -60,-39.79858 -9.9469,-6.15985 -20.6922,-14.31818 -32,-17.57562 m -92,40 c 8.0793,2.30969 15.6633,7.26343 24,8.67053 11.9613,2.01892 30.0594,-14.62842 21.9722,-27.14197 -1.8432,-2.85205 -6.5855,-5.37335 -9.9722,-4.69678 -8.8121,1.76044 -31.6664,15.47535 -36,23.16822 m -97,8 27,35 h 1 l 8,-6 -16.6289,-26 -7.5556,-8.55323 -11.8155,5.55323 m 137,-1 v 1 l 4,-1 h -4 m -143,5 c -7.7931,6.64648 -27.9324,15.20239 -31.1991,25.17053 -1.3019,3.9726 2.7571,7.33594 5.2037,9.82947 5.2661,5.36719 17.6379,22.79626 25.9954,21.45758 9.365,-1.50012 20.0658,-15.2146 28,-20.45758 -3.0534,-11.20874 -18.8097,-28.96656 -28,-36"
           id="path2"
           sodipodi:nodetypes="csssssssssssscccccccccccccccccccccccccccccsssssssssccscssccsssssssssscccccccccsssccssscssccssssssssssccssscccccccccccccssscc" /></g><g
         id="g10"
         transform="translate(-223.96508,94.301086)"><text
           xml:space="preserve"
           style="font-weight:600;font-size:125.526px;font-family:Poppins;-inkscape-font-specification:'Poppins Semi-Bold';text-align:center;writing-mode:lr-tb;direction:ltr;text-orientation:upright;text-anchor:middle;fill:#ffffff;stroke-width:2.47097;stroke-linecap:round;stroke-linejoin:round"
           x="1878.1652"
           y="371.7207"
           id="text7"><tspan
             sodipodi:role="line"
             id="tspan7"
             x="1878.1652"
             y="371.7207"
             style="font-style:normal;font-variant:normal;font-weight:bold;font-stretch:normal;font-family:'Noto Sans Tamil Supplement';-inkscape-font-specification:'Noto Sans Tamil Supplement Bold';fill:#000000;stroke-width:2.47097">DOJÔ</tspan></text><text
           xml:space="preserve"
           style="font-weight:600;font-size:125.526px;font-family:Poppins;-inkscape-font-specification:'Poppins Semi-Bold';text-align:center;writing-mode:lr-tb;direction:ltr;text-orientation:upright;text-anchor:middle;fill:#ffffff;stroke-width:2.47097;stroke-linecap:round;stroke-linejoin:round"
           x="1875.3151"
           y="501.47882"
           id="text8"><tspan
             sodipodi:role="line"
             x="1875.3151"
             y="501.47882"
             style="font-style:normal;font-variant:normal;font-weight:bold;font-stretch:normal;font-family:'Noto Sans Tamil Supplement';-inkscape-font-specification:'Noto Sans Tamil Supplement Bold';fill:#000000;stroke-width:2.47097"
             id="tspan9">UEMURA</tspan></text><text
           xml:space="preserve"
           style="font-style:normal;font-variant:normal;font-weight:bold;font-stretch:normal;font-size:60.6211px;font-family:'Noto Sans Tamil Supplement';-inkscape-font-specification:'Noto Sans Tamil Supplement Bold';text-align:center;writing-mode:lr-tb;direction:ltr;text-orientation:upright;text-anchor:middle;fill:#000000;stroke-width:1.19333;stroke-linecap:round;stroke-linejoin:round"
           x="1885.2545"
           y="561.36798"
           id="text10"><tspan
             sodipodi:role="line"
             id="tspan10"
             x="1885.2545"
             y="561.36798"
             style="stroke-width:1.19333">JIU JITSU</tspan></text></g></g><rect
       style="fill:#f9f9f9;fill-opacity:1;stroke-width:1.88976;stroke-linecap:round;stroke-linejoin:round"
       id="rect24"
       width="1122.5197"
       height="793.70081"
       x="0"
       y="0" /><g
       id="g14"
       transform="translate(-2.0423965,-25.423639)"><g
         id="g11"
         transform="matrix(0.85648969,0,0,0.85648969,-232.41814,273.06689)"
         style="fill:#000000;fill-opacity:1"><path
           style="fill:#000000;fill-opacity:1;stroke:none"
           d="m 703.33191,19.442434 c -16.3593,1.302063 -32.6519,6.568664 -49,8.718383 -21.6208,2.843018 -43.3996,2.478577 -65,4.821778 -26.6476,2.890747 -54.3162,-0.226685 -81,-0.544007 -24.0412,-0.285888 -49.3472,-3.146484 -73,-7.607238 -5.2385,-0.987976 -21.9389,-7.779847 -26.3565,-4.321778 -3.593,2.812561 2.6512,11.988221 3.9321,14.932862 2.7749,6.378967 5.589,18.962158 11.6382,22.860351 4.4096,2.841675 11.6923,2.980042 16.7862,3.711426 37.5961,5.398071 76.0734,5.428223 114,5.428223 27.5256,0 55.6615,0.940185 83,-2.285523 14.2669,-1.683349 34.7459,0.283081 47.7253,-6.568664 3.5248,-1.860718 4.6287,-6.759461 6.1358,-10.145813 4.0785,-9.164185 10.6723,-18.812256 11.1389,-29 m -254,51.000001 4.564,13.3966 21.436,2.6034 -1,22.999995 h -33 l -1,20 h 33 l -3,64 25,2 1,-66 h 121 l 1,65 25,-1 c -0.1644,-19.86518 1.5871,-44.73255 -3,-64 h 33 v -20 h -33 l -2,-22.999995 22.0617,-2.6034 3.9383,-13.3966 -118,4 -97,-4 m 166,16 1,22.999995 h -119 l 1,-22.999995 h 117 m -97,122.999995 c -8.1078,-7.9021 -27.2691,-5.35388 -38,-6.08948 -29.8428,-2.04565 -59.6341,-5.83838 -89,-11.71069 -9.068,-1.81336 -18.0672,-3.95301 -27,-6.35108 -3.0559,-0.82037 -7.6983,-2.87872 -9.9722,0.47302 -2.9638,4.36866 -1.0278,14.56952 -1.0278,19.67823 0,6.44049 -2.4042,19.05151 1.179,24.60644 2.8377,4.39923 11.1347,5.39679 15.821,6.50928 15.1832,3.60443 30.5669,5.93121 46,8.15509 9.3592,1.34863 25.1315,6.26868 34,2.31177 23.401,-10.44098 44.6145,-26.66449 68,-37.58258 m -8,-13 c 3.0969,6.50317 10.2826,10.33545 16,14.42132 12.5887,8.99634 26.3947,21.23133 41,26.57868 0,-11.20673 4.5626,-28.38959 0.3966,-38.91052 -1.2886,-3.25422 -4.7884,-5.5271 -7.3966,-7.6651 -16.2273,-13.30188 -32.8429,-1.08075 -50,5.57562 m 101,8 c 0.6617,15.41241 17.1551,19.70782 29,26.80017 8.2411,4.93445 17.7255,13.16186 27,15.70056 6.2376,1.7074 13.7199,-0.66205 20,-1.33484 16.1356,-1.72858 32.0886,-4.38257 48,-7.56555 6.7987,-1.36005 17.1312,-1.91003 22.686,-6.44373 6.8167,-5.56372 3.9724,-29.18762 3.0285,-37.15661 -0.3886,-3.28095 -0.1586,-8.93927 -3.8626,-10.35724 -3.4445,-1.3186 -8.5015,0.86059 -11.8519,1.78088 -8.243,2.26422 -16.6183,4.1001 -25,5.77619 -14.2457,2.84875 -28.5741,5.22351 -43,6.95526 -21.8661,2.62494 -43.9537,5.84491 -66,5.84491 m -52,-19 v 1 l 9,6 1,-5 -10,-2 m 12,2 -1.0146,57 0.015,28 c 10.0471,-2.32556 27.2418,-7.14258 33.297,-16.01544 6.1898,-9.07019 4.8572,-25.63996 3.8727,-35.98456 -0.5559,-5.84101 0.9973,-13.73194 -2.9081,-18.72528 -5.5337,-7.0752 -24.7276,-11.94062 -33.2616,-14.27472 m -131,70 c 3.8119,9.01703 11.5433,16.85754 16.9992,25 1.7171,2.56262 3.9405,7.66205 7.1852,8.54242 5.5968,1.51855 18.2661,-11.38123 22.8156,-14.51691 21.2651,-14.6568 47.6286,-26.19171 67,-43.02551 -8.8073,-5.41455 -21.8512,-19.46381 -32,-20.88196 -6.6083,-0.9234 -18.3213,7.59515 -24,10.74304 -19.6311,10.88214 -38.4256,23.24103 -58,34.13892 m 172,-37 c 0.6352,8.99316 0.9103,19.18426 -1.2392,28 -0.9405,3.85718 -5.4583,9.89044 -3.6281,13.79016 1.5759,3.35785 6.8549,5.55328 9.8673,7.39886 8.4149,5.15546 16.7994,10.31781 25,15.81177 14.0811,9.43366 27.7674,19.6134 41,30.19904 4.3851,3.50793 10.8609,11.10724 17,10.51312 6.6634,-0.64484 12.2832,-9.19116 17,-13.28857 3.6024,-3.12946 8.9175,-6.82343 10.7121,-11.42359 3.0369,-7.78436 -18.4323,-19.68371 -23.7121,-23.62659 -19.2785,-14.39679 -39.5666,-27.14459 -60,-39.79858 -9.9469,-6.15985 -20.6922,-14.31818 -32,-17.57562 m -92,40 c 8.0793,2.30969 15.6633,7.26343 24,8.67053 11.9613,2.01892 30.0594,-14.62842 21.9722,-27.14197 -1.8432,-2.85205 -6.5855,-5.37335 -9.9722,-4.69678 -8.8121,1.76044 -31.6664,15.47535 -36,23.16822 m -97,8 27,35 h 1 l 8,-6 -16.6289,-26 -7.5556,-8.55323 -11.8155,5.55323 m 137,-1 v 1 l 4,-1 h -4 m -143,5 c -7.7931,6.64648 -27.9324,15.20239 -31.1991,25.17053 -1.3019,3.9726 2.7571,7.33594 5.2037,9.82947 5.2661,5.36719 17.6379,22.79626 25.9954,21.45758 9.365,-1.50012 20.0658,-15.2146 28,-20.45758 -3.0534,-11.20874 -18.8097,-28.96656 -28,-36"
           id="path10"
           sodipodi:nodetypes="csssssssssssscccccccccccccccccccccccccccccsssssssssccscssccsssssssssscccccccccsssccssscssccssssssssssccssscccccccccccccssscc" /></g><g
         id="g13"
         transform="translate(-1121.79,7.8584238)"><text
           xml:space="preserve"
           style="font-weight:600;font-size:125.526px;font-family:Poppins;-inkscape-font-specification:'Poppins Semi-Bold';text-align:center;writing-mode:lr-tb;direction:ltr;text-orientation:upright;text-anchor:middle;fill:#ffffff;stroke-width:2.47097;stroke-linecap:round;stroke-linejoin:round"
           x="1878.1652"
           y="371.7207"
           id="text11"><tspan
             sodipodi:role="line"
             id="tspan11"
             x="1878.1652"
             y="371.7207"
             style="font-style:normal;font-variant:normal;font-weight:bold;font-stretch:normal;font-family:'Noto Sans Tamil Supplement';-inkscape-font-specification:'Noto Sans Tamil Supplement Bold';fill:#000000;stroke-width:2.47097">DOJÔ</tspan></text><text
           xml:space="preserve"
           style="font-weight:600;font-size:125.526px;font-family:Poppins;-inkscape-font-specification:'Poppins Semi-Bold';text-align:center;writing-mode:lr-tb;direction:ltr;text-orientation:upright;text-anchor:middle;fill:#ffffff;stroke-width:2.47097;stroke-linecap:round;stroke-linejoin:round"
           x="1875.3151"
           y="501.47882"
           id="text12"><tspan
             sodipodi:role="line"
             x="1875.3151"
             y="501.47882"
             style="font-style:normal;font-variant:normal;font-weight:bold;font-stretch:normal;font-family:'Noto Sans Tamil Supplement';-inkscape-font-specification:'Noto Sans Tamil Supplement Bold';fill:#000000;stroke-width:2.47097"
             id="tspan12">UEMURA</tspan></text><text
           xml:space="preserve"
           style="font-style:normal;font-variant:normal;font-weight:bold;font-stretch:normal;font-size:60.6211px;font-family:'Noto Sans Tamil Supplement';-inkscape-font-specification:'Noto Sans Tamil Supplement Bold';text-align:center;writing-mode:lr-tb;direction:ltr;text-orientation:upright;text-anchor:middle;fill:#000000;stroke-width:1.19333;stroke-linecap:round;stroke-linejoin:round"
           x="1885.2545"
           y="561.36798"
           id="text13"><tspan
             sodipodi:role="line"
             id="tspan13"
             x="1885.2545"
             y="561.36798"
             style="stroke-width:1.19333">JIU JITSU</tspan></text></g></g><g
       id="g19"
       transform="translate(36.974467,817.80225)"
       style="fill:#f9f9f9"><g
         id="g16"
         transform="matrix(0.85648969,0,0,0.85648969,1179.3182,67.866236)"
         style="fill:#f9f9f9;fill-opacity:1"><path
           style="fill:#f9f9f9;fill-opacity:1;stroke:none"
           d="m 703.33191,19.442434 c -16.3593,1.302063 -32.6519,6.568664 -49,8.718383 -21.6208,2.843018 -43.3996,2.478577 -65,4.821778 -26.6476,2.890747 -54.3162,-0.226685 -81,-0.544007 -24.0412,-0.285888 -49.3472,-3.146484 -73,-7.607238 -5.2385,-0.987976 -21.9389,-7.779847 -26.3565,-4.321778 -3.593,2.812561 2.6512,11.988221 3.9321,14.932862 2.7749,6.378967 5.589,18.962158 11.6382,22.860351 4.4096,2.841675 11.6923,2.980042 16.7862,3.711426 37.5961,5.398071 76.0734,5.428223 114,5.428223 27.5256,0 55.6615,0.940185 83,-2.285523 14.2669,-1.683349 34.7459,0.283081 47.7253,-6.568664 3.5248,-1.860718 4.6287,-6.759461 6.1358,-10.145813 4.0785,-9.164185 10.6723,-18.812256 11.1389,-29 m -254,51.000001 4.564,13.3966 21.436,2.6034 -1,22.999995 h -33 l -1,20 h 33 l -3,64 25,2 1,-66 h 121 l 1,65 25,-1 c -0.1644,-19.86518 1.5871,-44.73255 -3,-64 h 33 v -20 h -33 l -2,-22.999995 22.0617,-2.6034 3.9383,-13.3966 -118,4 -97,-4 m 166,16 1,22.999995 h -119 l 1,-22.999995 h 117 m -97,122.999995 c -8.1078,-7.9021 -27.2691,-5.35388 -38,-6.08948 -29.8428,-2.04565 -59.6341,-5.83838 -89,-11.71069 -9.068,-1.81336 -18.0672,-3.95301 -27,-6.35108 -3.0559,-0.82037 -7.6983,-2.87872 -9.9722,0.47302 -2.9638,4.36866 -1.0278,14.56952 -1.0278,19.67823 0,6.44049 -2.4042,19.05151 1.179,24.60644 2.8377,4.39923 11.1347,5.39679 15.821,6.50928 15.1832,3.60443 30.5669,5.93121 46,8.15509 9.3592,1.34863 25.1315,6.26868 34,2.31177 23.401,-10.44098 44.6145,-26.66449 68,-37.58258 m -8,-13 c 3.0969,6.50317 10.2826,10.33545 16,14.42132 12.5887,8.99634 26.3947,21.23133 41,26.57868 0,-11.20673 4.5626,-28.38959 0.3966,-38.91052 -1.2886,-3.25422 -4.7884,-5.5271 -7.3966,-7.6651 -16.2273,-13.30188 -32.8429,-1.08075 -50,5.57562 m 101,8 c 0.6617,15.41241 17.1551,19.70782 29,26.80017 8.2411,4.93445 17.7255,13.16186 27,15.70056 6.2376,1.7074 13.7199,-0.66205 20,-1.33484 16.1356,-1.72858 32.0886,-4.38257 48,-7.56555 6.7987,-1.36005 17.1312,-1.91003 22.686,-6.44373 6.8167,-5.56372 3.9724,-29.18762 3.0285,-37.15661 -0.3886,-3.28095 -0.1586,-8.93927 -3.8626,-10.35724 -3.4445,-1.3186 -8.5015,0.86059 -11.8519,1.78088 -8.243,2.26422 -16.6183,4.1001 -25,5.77619 -14.2457,2.84875 -28.5741,5.22351 -43,6.95526 -21.8661,2.62494 -43.9537,5.84491 -66,5.84491 m -52,-19 v 1 l 9,6 1,-5 -10,-2 m 12,2 -1.0146,57 0.015,28 c 10.0471,-2.32556 27.2418,-7.14258 33.297,-16.01544 6.1898,-9.07019 4.8572,-25.63996 3.8727,-35.98456 -0.5559,-5.84101 0.9973,-13.73194 -2.9081,-18.72528 -5.5337,-7.0752 -24.7276,-11.94062 -33.2616,-14.27472 m -131,70 c 3.8119,9.01703 11.5433,16.85754 16.9992,25 1.7171,2.56262 3.9405,7.66205 7.1852,8.54242 5.5968,1.51855 18.2661,-11.38123 22.8156,-14.51691 21.2651,-14.6568 47.6286,-26.19171 67,-43.02551 -8.8073,-5.41455 -21.8512,-19.46381 -32,-20.88196 -6.6083,-0.9234 -18.3213,7.59515 -24,10.74304 -19.6311,10.88214 -38.4256,23.24103 -58,34.13892 m 172,-37 c 0.6352,8.99316 0.9103,19.18426 -1.2392,28 -0.9405,3.85718 -5.4583,9.89044 -3.6281,13.79016 1.5759,3.35785 6.8549,5.55328 9.8673,7.39886 8.4149,5.15546 16.7994,10.31781 25,15.81177 14.0811,9.43366 27.7674,19.6134 41,30.19904 4.3851,3.50793 10.8609,11.10724 17,10.51312 6.6634,-0.64484 12.2832,-9.19116 17,-13.28857 3.6024,-3.12946 8.9175,-6.82343 10.7121,-11.42359 3.0369,-7.78436 -18.4323,-19.68371 -23.7121,-23.62659 -19.2785,-14.39679 -39.5666,-27.14459 -60,-39.79858 -9.9469,-6.15985 -20.6922,-14.31818 -32,-17.57562 m -92,40 c 8.0793,2.30969 15.6633,7.26343 24,8.67053 11.9613,2.01892 30.0594,-14.62842 21.9722,-27.14197 -1.8432,-2.85205 -6.5855,-5.37335 -9.9722,-4.69678 -8.8121,1.76044 -31.6664,15.47535 -36,23.16822 m -97,8 27,35 h 1 l 8,-6 -16.6289,-26 -7.5556,-8.55323 -11.8155,5.55323 m 137,-1 v 1 l 4,-1 h -4 m -143,5 c -7.7931,6.64648 -27.9324,15.20239 -31.1991,25.17053 -1.3019,3.9726 2.7571,7.33594 5.2037,9.82947 5.2661,5.36719 17.6379,22.79626 25.9954,21.45758 9.365,-1.50012 20.0658,-15.2146 28,-20.45758 -3.0534,-11.20874 -18.8097,-28.96656 -28,-36"
           id="path16"
           sodipodi:nodetypes="csssssssssssscccccccccccccccccccccccccccccsssssssssccscssccsssssssssscccccccccsssccssscssccssssssssssccssscccccccccccccssscc" /></g><g
         id="g18"
         transform="translate(-223.96508,94.301086)"
         style="fill:#f9f9f9"><text
           xml:space="preserve"
           style="font-weight:600;font-size:125.526px;font-family:Poppins;-inkscape-font-specification:'Poppins Semi-Bold';text-align:center;writing-mode:lr-tb;direction:ltr;text-orientation:upright;text-anchor:middle;fill:#f9f9f9;stroke-width:2.47097;stroke-linecap:round;stroke-linejoin:round"
           x="1878.1652"
           y="371.7207"
           id="text16"><tspan
             sodipodi:role="line"
             id="tspan16"
             x="1878.1652"
             y="371.7207"
             style="font-style:normal;font-variant:normal;font-weight:bold;font-stretch:normal;font-family:'Noto Sans Tamil Supplement';-inkscape-font-specification:'Noto Sans Tamil Supplement Bold';fill:#f9f9f9;stroke-width:2.47097">DOJÔ</tspan></text><text
           xml:space="preserve"
           style="font-weight:600;font-size:125.526px;font-family:Poppins;-inkscape-font-specification:'Poppins Semi-Bold';text-align:center;writing-mode:lr-tb;direction:ltr;text-orientation:upright;text-anchor:middle;fill:#f9f9f9;stroke-width:2.47097;stroke-linecap:round;stroke-linejoin:round"
           x="1875.3151"
           y="501.47882"
           id="text17"><tspan
             sodipodi:role="line"
             x="1875.3151"
             y="501.47882"
             style="font-style:normal;font-variant:normal;font-weight:bold;font-stretch:normal;font-family:'Noto Sans Tamil Supplement';-inkscape-font-specification:'Noto Sans Tamil Supplement Bold';fill:#f9f9f9;stroke-width:2.47097"
             id="tspan17">UEMURA</tspan></text><text
           xml:space="preserve"
           style="font-style:normal;font-variant:normal;font-weight:bold;font-stretch:normal;font-size:60.6211px;font-family:'Noto Sans Tamil Supplement';-inkscape-font-specification:'Noto Sans Tamil Supplement Bold';text-align:center;writing-mode:lr-tb;direction:ltr;text-orientation:upright;text-anchor:middle;fill:#f9f9f9;stroke-width:1.19333;stroke-linecap:round;stroke-linejoin:round"
           x="1885.2545"
           y="561.36798"
           id="text18"><tspan
             sodipodi:role="line"
             id="tspan18"
             x="1885.2545"
             y="561.36798"
             style="fill:#f9f9f9;stroke-width:1.19333">JIU JITSU</tspan></text></g></g><rect
       style="fill:#000000;fill-opacity:1;stroke-width:1.88976;stroke-linecap:round;stroke-linejoin:round"
       id="rect23"
       width="1122.5197"
       height="793.70081"
       x="0.00010179659"
       y="821.20526" /><g
       id="g23"
       transform="translate(-2.0423965,771.68999)"
       style="fill:#f9f9f9"><g
         id="g20"
         transform="matrix(0.85648969,0,0,0.85648969,-232.41814,273.06689)"
         style="fill:#f9f9f9;fill-opacity:1"><path
           style="fill:#f9f9f9;fill-opacity:1;stroke:none"
           d="m 703.33191,19.442434 c -16.3593,1.302063 -32.6519,6.568664 -49,8.718383 -21.6208,2.843018 -43.3996,2.478577 -65,4.821778 -26.6476,2.890747 -54.3162,-0.226685 -81,-0.544007 -24.0412,-0.285888 -49.3472,-3.146484 -73,-7.607238 -5.2385,-0.987976 -21.9389,-7.779847 -26.3565,-4.321778 -3.593,2.812561 2.6512,11.988221 3.9321,14.932862 2.7749,6.378967 5.589,18.962158 11.6382,22.860351 4.4096,2.841675 11.6923,2.980042 16.7862,3.711426 37.5961,5.398071 76.0734,5.428223 114,5.428223 27.5256,0 55.6615,0.940185 83,-2.285523 14.2669,-1.683349 34.7459,0.283081 47.7253,-6.568664 3.5248,-1.860718 4.6287,-6.759461 6.1358,-10.145813 4.0785,-9.164185 10.6723,-18.812256 11.1389,-29 m -254,51.000001 4.564,13.3966 21.436,2.6034 -1,22.999995 h -33 l -1,20 h 33 l -3,64 25,2 1,-66 h 121 l 1,65 25,-1 c -0.1644,-19.86518 1.5871,-44.73255 -3,-64 h 33 v -20 h -33 l -2,-22.999995 22.0617,-2.6034 3.9383,-13.3966 -118,4 -97,-4 m 166,16 1,22.999995 h -119 l 1,-22.999995 h 117 m -97,122.999995 c -8.1078,-7.9021 -27.2691,-5.35388 -38,-6.08948 -29.8428,-2.04565 -59.6341,-5.83838 -89,-11.71069 -9.068,-1.81336 -18.0672,-3.95301 -27,-6.35108 -3.0559,-0.82037 -7.6983,-2.87872 -9.9722,0.47302 -2.9638,4.36866 -1.0278,14.56952 -1.0278,19.67823 0,6.44049 -2.4042,19.05151 1.179,24.60644 2.8377,4.39923 11.1347,5.39679 15.821,6.50928 15.1832,3.60443 30.5669,5.93121 46,8.15509 9.3592,1.34863 25.1315,6.26868 34,2.31177 23.401,-10.44098 44.6145,-26.66449 68,-37.58258 m -8,-13 c 3.0969,6.50317 10.2826,10.33545 16,14.42132 12.5887,8.99634 26.3947,21.23133 41,26.57868 0,-11.20673 4.5626,-28.38959 0.3966,-38.91052 -1.2886,-3.25422 -4.7884,-5.5271 -7.3966,-7.6651 -16.2273,-13.30188 -32.8429,-1.08075 -50,5.57562 m 101,8 c 0.6617,15.41241 17.1551,19.70782 29,26.80017 8.2411,4.93445 17.7255,13.16186 27,15.70056 6.2376,1.7074 13.7199,-0.66205 20,-1.33484 16.1356,-1.72858 32.0886,-4.38257 48,-7.56555 6.7987,-1.36005 17.1312,-1.91003 22.686,-6.44373 6.8167,-5.56372 3.9724,-29.18762 3.0285,-37.15661 -0.3886,-3.28095 -0.1586,-8.93927 -3.8626,-10.35724 -3.4445,-1.3186 -8.5015,0.86059 -11.8519,1.78088 -8.243,2.26422 -16.6183,4.1001 -25,5.77619 -14.2457,2.84875 -28.5741,5.22351 -43,6.95526 -21.8661,2.62494 -43.9537,5.84491 -66,5.84491 m -52,-19 v 1 l 9,6 1,-5 -10,-2 m 12,2 -1.0146,57 0.015,28 c 10.0471,-2.32556 27.2418,-7.14258 33.297,-16.01544 6.1898,-9.07019 4.8572,-25.63996 3.8727,-35.98456 -0.5559,-5.84101 0.9973,-13.73194 -2.9081,-18.72528 -5.5337,-7.0752 -24.7276,-11.94062 -33.2616,-14.27472 m -131,70 c 3.8119,9.01703 11.5433,16.85754 16.9992,25 1.7171,2.56262 3.9405,7.66205 7.1852,8.54242 5.5968,1.51855 18.2661,-11.38123 22.8156,-14.51691 21.2651,-14.6568 47.6286,-26.19171 67,-43.02551 -8.8073,-5.41455 -21.8512,-19.46381 -32,-20.88196 -6.6083,-0.9234 -18.3213,7.59515 -24,10.74304 -19.6311,10.88214 -38.4256,23.24103 -58,34.13892 m 172,-37 c 0.6352,8.99316 0.9103,19.18426 -1.2392,28 -0.9405,3.85718 -5.4583,9.89044 -3.6281,13.79016 1.5759,3.35785 6.8549,5.55328 9.8673,7.39886 8.4149,5.15546 16.7994,10.31781 25,15.81177 14.0811,9.43366 27.7674,19.6134 41,30.19904 4.3851,3.50793 10.8609,11.10724 17,10.51312 6.6634,-0.64484 12.2832,-9.19116 17,-13.28857 3.6024,-3.12946 8.9175,-6.82343 10.7121,-11.42359 3.0369,-7.78436 -18.4323,-19.68371 -23.7121,-23.62659 -19.2785,-14.39679 -39.5666,-27.14459 -60,-39.79858 -9.9469,-6.15985 -20.6922,-14.31818 -32,-17.57562 m -92,40 c 8.0793,2.30969 15.6633,7.26343 24,8.67053 11.9613,2.01892 30.0594,-14.62842 21.9722,-27.14197 -1.8432,-2.85205 -6.5855,-5.37335 -9.9722,-4.69678 -8.8121,1.76044 -31.6664,15.47535 -36,23.16822 m -97,8 27,35 h 1 l 8,-6 -16.6289,-26 -7.5556,-8.55323 -11.8155,5.55323 m 137,-1 v 1 l 4,-1 h -4 m -143,5 c -7.7931,6.64648 -27.9324,15.20239 -31.1991,25.17053 -1.3019,3.9726 2.7571,7.33594 5.2037,9.82947 5.2661,5.36719 17.6379,22.79626 25.9954,21.45758 9.365,-1.50012 20.0658,-15.2146 28,-20.45758 -3.0534,-11.20874 -18.8097,-28.96656 -28,-36"
           id="path19"
           sodipodi:nodetypes="csssssssssssscccccccccccccccccccccccccccccsssssssssccscssccsssssssssscccccccccsssccssscssccssssssssssccssscccccccccccccssscc" /></g><g
         id="g22"
         transform="translate(-1121.79,7.8584238)"
         style="fill:#f9f9f9"><text
           xml:space="preserve"
           style="font-weight:600;font-size:125.526px;font-family:Poppins;-inkscape-font-specification:'Poppins Semi-Bold';text-align:center;writing-mode:lr-tb;direction:ltr;text-orientation:upright;text-anchor:middle;fill:#f9f9f9;stroke-width:2.47097;stroke-linecap:round;stroke-linejoin:round"
           x="1878.1652"
           y="371.7207"
           id="text20"><tspan
             sodipodi:role="line"
             id="tspan20"
             x="1878.1652"
             y="371.7207"
             style="font-style:normal;font-variant:normal;font-weight:bold;font-stretch:normal;font-family:'Noto Sans Tamil Supplement';-inkscape-font-specification:'Noto Sans Tamil Supplement Bold';fill:#f9f9f9;stroke-width:2.47097">DOJÔ</tspan></text><text
           xml:space="preserve"
           style="font-weight:600;font-size:125.526px;font-family:Poppins;-inkscape-font-specification:'Poppins Semi-Bold';text-align:center;writing-mode:lr-tb;direction:ltr;text-orientation:upright;text-anchor:middle;fill:#f9f9f9;stroke-width:2.47097;stroke-linecap:round;stroke-linejoin:round"
           x="1875.3151"
           y="501.47882"
           id="text21"><tspan
             sodipodi:role="line"
             x="1875.3151"
             y="501.47882"
             style="font-style:normal;font-variant:normal;font-weight:bold;font-stretch:normal;font-family:'Noto Sans Tamil Supplement';-inkscape-font-specification:'Noto Sans Tamil Supplement Bold';fill:#f9f9f9;stroke-width:2.47097"
             id="tspan21">UEMURA</tspan></text><text
           xml:space="preserve"
           style="font-style:normal;font-variant:normal;font-weight:bold;font-stretch:normal;font-size:60.6211px;font-family:'Noto Sans Tamil Supplement';-inkscape-font-specification:'Noto Sans Tamil Supplement Bold';text-align:center;writing-mode:lr-tb;direction:ltr;text-orientation:upright;text-anchor:middle;fill:#f9f9f9;stroke-width:1.19333;stroke-linecap:round;stroke-linejoin:round"
           x="1885.2545"
           y="561.36798"
           id="text22"><tspan
             sodipodi:role="line"
             id="tspan22"
             x="1885.2545"
             y="561.36798"
             style="fill:#f9f9f9;stroke-width:1.19333">JIU JITSU</tspan></text></g></g><rect
       style="fill:#f9f9f9;fill-opacity:1;stroke-width:1.88976;stroke-linecap:round;stroke-linejoin:round"
       id="rect8"
       width="1122.5197"
       height="793.70081"
       x="2265.0391"
       y="2.1502427e-05" /><g
       id="g7"
       transform="translate(1169.4941,20.688606)"><g
         id="g4"
         transform="matrix(0.85648969,0,0,0.85648969,1179.3182,67.866236)"
         style="fill:#000000;fill-opacity:1"><path
           style="fill:#000000;fill-opacity:1;stroke:none"
           d="m 703.33191,19.442434 c -16.3593,1.302063 -32.6519,6.568664 -49,8.718383 -21.6208,2.843018 -43.3996,2.478577 -65,4.821778 -26.6476,2.890747 -54.3162,-0.226685 -81,-0.544007 -24.0412,-0.285888 -49.3472,-3.146484 -73,-7.607238 -5.2385,-0.987976 -21.9389,-7.779847 -26.3565,-4.321778 -3.593,2.812561 2.6512,11.988221 3.9321,14.932862 2.7749,6.378967 5.589,18.962158 11.6382,22.860351 4.4096,2.841675 11.6923,2.980042 16.7862,3.711426 37.5961,5.398071 76.0734,5.428223 114,5.428223 27.5256,0 55.6615,0.940185 83,-2.285523 14.2669,-1.683349 34.7459,0.283081 47.7253,-6.568664 3.5248,-1.860718 4.6287,-6.759461 6.1358,-10.145813 4.0785,-9.164185 10.6723,-18.812256 11.1389,-29 m -254,51.000001 4.564,13.3966 21.436,2.6034 -1,22.999995 h -33 l -1,20 h 33 l -3,64 25,2 1,-66 h 121 l 1,65 25,-1 c -0.1644,-19.86518 1.5871,-44.73255 -3,-64 h 33 v -20 h -33 l -2,-22.999995 22.0617,-2.6034 3.9383,-13.3966 -118,4 -97,-4 m 166,16 1,22.999995 h -119 l 1,-22.999995 h 117 m -97,122.999995 c -8.1078,-7.9021 -27.2691,-5.35388 -38,-6.08948 -29.8428,-2.04565 -59.6341,-5.83838 -89,-11.71069 -9.068,-1.81336 -18.0672,-3.95301 -27,-6.35108 -3.0559,-0.82037 -7.6983,-2.87872 -9.9722,0.47302 -2.9638,4.36866 -1.0278,14.56952 -1.0278,19.67823 0,6.44049 -2.4042,19.05151 1.179,24.60644 2.8377,4.39923 11.1347,5.39679 15.821,6.50928 15.1832,3.60443 30.5669,5.93121 46,8.15509 9.3592,1.34863 25.1315,6.26868 34,2.31177 23.401,-10.44098 44.6145,-26.66449 68,-37.58258 m -8,-13 c 3.0969,6.50317 10.2826,10.33545 16,14.42132 12.5887,8.99634 26.3947,21.23133 41,26.57868 0,-11.20673 4.5626,-28.38959 0.3966,-38.91052 -1.2886,-3.25422 -4.7884,-5.5271 -7.3966,-7.6651 -16.2273,-13.30188 -32.8429,-1.08075 -50,5.57562 m 101,8 c 0.6617,15.41241 17.1551,19.70782 29,26.80017 8.2411,4.93445 17.7255,13.16186 27,15.70056 6.2376,1.7074 13.7199,-0.66205 20,-1.33484 16.1356,-1.72858 32.0886,-4.38257 48,-7.56555 6.7987,-1.36005 17.1312,-1.91003 22.686,-6.44373 6.8167,-5.56372 3.9724,-29.18762 3.0285,-37.15661 -0.3886,-3.28095 -0.1586,-8.93927 -3.8626,-10.35724 -3.4445,-1.3186 -8.5015,0.86059 -11.8519,1.78088 -8.243,2.26422 -16.6183,4.1001 -25,5.77619 -14.2457,2.84875 -28.5741,5.22351 -43,6.95526 -21.8661,2.62494 -43.9537,5.84491 -66,5.84491 m -52,-19 v 1 l 9,6 1,-5 -10,-2 m 12,2 -1.0146,57 0.015,28 c 10.0471,-2.32556 27.2418,-7.14258 33.297,-16.01544 6.1898,-9.07019 4.8572,-25.63996 3.8727,-35.98456 -0.5559,-5.84101 0.9973,-13.73194 -2.9081,-18.72528 -5.5337,-7.0752 -24.7276,-11.94062 -33.2616,-14.27472 m -131,70 c 3.8119,9.01703 11.5433,16.85754 16.9992,25 1.7171,2.56262 3.9405,7.66205 7.1852,8.54242 5.5968,1.51855 18.2661,-11.38123 22.8156,-14.51691 21.2651,-14.6568 47.6286,-26.19171 67,-43.02551 -8.8073,-5.41455 -21.8512,-19.46381 -32,-20.88196 -6.6083,-0.9234 -18.3213,7.59515 -24,10.74304 -19.6311,10.88214 -38.4256,23.24103 -58,34.13892 m 172,-37 c 0.6352,8.99316 0.9103,19.18426 -1.2392,28 -0.9405,3.85718 -5.4583,9.89044 -3.6281,13.79016 1.5759,3.35785 6.8549,5.55328 9.8673,7.39886 8.4149,5.15546 16.7994,10.31781 25,15.81177 14.0811,9.43366 27.7674,19.6134 41,30.19904 4.3851,3.50793 10.8609,11.10724 17,10.51312 6.6634,-0.64484 12.2832,-9.19116 17,-13.28857 3.6024,-3.12946 8.9175,-6.82343 10.7121,-11.42359 3.0369,-7.78436 -18.4323,-19.68371 -23.7121,-23.62659 -19.2785,-14.39679 -39.5666,-27.14459 -60,-39.79858 -9.9469,-6.15985 -20.6922,-14.31818 -32,-17.57562 m -92,40 c 8.0793,2.30969 15.6633,7.26343 24,8.67053 11.9613,2.01892 30.0594,-14.62842 21.9722,-27.14197 -1.8432,-2.85205 -6.5855,-5.37335 -9.9722,-4.69678 -8.8121,1.76044 -31.6664,15.47535 -36,23.16822 m -97,8 27,35 h 1 l 8,-6 -16.6289,-26 -7.5556,-8.55323 -11.8155,5.55323 m 137,-1 v 1 l 4,-1 h -4 m -143,5 c -7.7931,6.64648 -27.9324,15.20239 -31.1991,25.17053 -1.3019,3.9726 2.7571,7.33594 5.2037,9.82947 5.2661,5.36719 17.6379,22.79626 25.9954,21.45758 9.365,-1.50012 20.0658,-15.2146 28,-20.45758 -3.0534,-11.20874 -18.8097,-28.96656 -28,-36"
           id="path4"
           sodipodi:nodetypes="csssssssssssscccccccccccccccccccccccccccccsssssssssccscssccsssssssssscccccccccsssccssscssccssssssssssccssscccccccccccccssscc" /></g><g
         id="g6"
         transform="translate(-223.96508,94.301086)"><text
           xml:space="preserve"
           style="font-weight:600;font-size:125.526px;font-family:Poppins;-inkscape-font-specification:'Poppins Semi-Bold';text-align:center;writing-mode:lr-tb;direction:ltr;text-orientation:upright;text-anchor:middle;fill:#ff0000;stroke-width:2.47097;stroke-linecap:round;stroke-linejoin:round"
           x="1878.1652"
           y="371.7207"
           id="text4"><tspan
             sodipodi:role="line"
             id="tspan4"
             x="1878.1652"
             y="371.7207"
             style="font-style:normal;font-variant:normal;font-weight:bold;font-stretch:normal;font-family:'Noto Sans Tamil Supplement';-inkscape-font-specification:'Noto Sans Tamil Supplement Bold';fill:#ff0000;stroke-width:2.47097">DOJÔ</tspan></text><text
           xml:space="preserve"
           style="font-weight:600;font-size:125.526px;font-family:Poppins;-inkscape-font-specification:'Poppins Semi-Bold';text-align:center;writing-mode:lr-tb;direction:ltr;text-orientation:upright;text-anchor:middle;fill:#ffffff;stroke-width:2.47097;stroke-linecap:round;stroke-linejoin:round"
           x="1875.3151"
           y="501.47882"
           id="text5"><tspan
             sodipodi:role="line"
             x="1875.3151"
             y="501.47882"
             style="font-style:normal;font-variant:normal;font-weight:bold;font-stretch:normal;font-family:'Noto Sans Tamil Supplement';-inkscape-font-specification:'Noto Sans Tamil Supplement Bold';fill:#000000;stroke-width:2.47097"
             id="tspan5">UEMURA</tspan></text><text
           xml:space="preserve"
           style="font-style:normal;font-variant:normal;font-weight:bold;font-stretch:normal;font-size:60.6211px;font-family:'Noto Sans Tamil Supplement';-inkscape-font-specification:'Noto Sans Tamil Supplement Bold';text-align:center;writing-mode:lr-tb;direction:ltr;text-orientation:upright;text-anchor:middle;fill:#000000;stroke-width:1.19333;stroke-linecap:round;stroke-linejoin:round"
           x="1885.2545"
           y="561.36798"
           id="text6"><tspan
             sodipodi:role="line"
             id="tspan6"
             x="1885.2545"
             y="561.36798"
             style="stroke-width:1.19333">JIU JITSU</tspan></text></g></g><rect
       style="fill:#000000;fill-opacity:1;stroke-width:1.88976;stroke-linecap:round;stroke-linejoin:round"
       id="rect7"
       width="1122.5197"
       height="793.70081"
       x="2265.0391"
       y="821.20532" /><g
       id="g21"
       transform="translate(1176.1073,841.89388)"
       style="fill:#f9f9f9"><g
         id="g8"
         transform="matrix(0.85648969,0,0,0.85648969,1172.7051,67.866236)"
         style="fill:#f9f9f9;fill-opacity:1"><path
           style="fill:#f9f9f9;fill-opacity:1;stroke:none"
           d="m 703.33191,19.442434 c -16.3593,1.302063 -32.6519,6.568664 -49,8.718383 -21.6208,2.843018 -43.3996,2.478577 -65,4.821778 -26.6476,2.890747 -54.3162,-0.226685 -81,-0.544007 -24.0412,-0.285888 -49.3472,-3.146484 -73,-7.607238 -5.2385,-0.987976 -21.9389,-7.779847 -26.3565,-4.321778 -3.593,2.812561 2.6512,11.988221 3.9321,14.932862 2.7749,6.378967 5.589,18.962158 11.6382,22.860351 4.4096,2.841675 11.6923,2.980042 16.7862,3.711426 37.5961,5.398071 76.0734,5.428223 114,5.428223 27.5256,0 55.6615,0.940185 83,-2.285523 14.2669,-1.683349 34.7459,0.283081 47.7253,-6.568664 3.5248,-1.860718 4.6287,-6.759461 6.1358,-10.145813 4.0785,-9.164185 10.6723,-18.812256 11.1389,-29 m -254,51.000001 4.564,13.3966 21.436,2.6034 -1,22.999995 h -33 l -1,20 h 33 l -3,64 25,2 1,-66 h 121 l 1,65 25,-1 c -0.1644,-19.86518 1.5871,-44.73255 -3,-64 h 33 v -20 h -33 l -2,-22.999995 22.0617,-2.6034 3.9383,-13.3966 -118,4 -97,-4 m 166,16 1,22.999995 h -119 l 1,-22.999995 h 117 m -97,122.999995 c -8.1078,-7.9021 -27.2691,-5.35388 -38,-6.08948 -29.8428,-2.04565 -59.6341,-5.83838 -89,-11.71069 -9.068,-1.81336 -18.0672,-3.95301 -27,-6.35108 -3.0559,-0.82037 -7.6983,-2.87872 -9.9722,0.47302 -2.9638,4.36866 -1.0278,14.56952 -1.0278,19.67823 0,6.44049 -2.4042,19.05151 1.179,24.60644 2.8377,4.39923 11.1347,5.39679 15.821,6.50928 15.1832,3.60443 30.5669,5.93121 46,8.15509 9.3592,1.34863 25.1315,6.26868 34,2.31177 23.401,-10.44098 44.6145,-26.66449 68,-37.58258 m -8,-13 c 3.0969,6.50317 10.2826,10.33545 16,14.42132 12.5887,8.99634 26.3947,21.23133 41,26.57868 0,-11.20673 4.5626,-28.38959 0.3966,-38.91052 -1.2886,-3.25422 -4.7884,-5.5271 -7.3966,-7.6651 -16.2273,-13.30188 -32.8429,-1.08075 -50,5.57562 m 101,8 c 0.6617,15.41241 17.1551,19.70782 29,26.80017 8.2411,4.93445 17.7255,13.16186 27,15.70056 6.2376,1.7074 13.7199,-0.66205 20,-1.33484 16.1356,-1.72858 32.0886,-4.38257 48,-7.56555 6.7987,-1.36005 17.1312,-1.91003 22.686,-6.44373 6.8167,-5.56372 3.9724,-29.18762 3.0285,-37.15661 -0.3886,-3.28095 -0.1586,-8.93927 -3.8626,-10.35724 -3.4445,-1.3186 -8.5015,0.86059 -11.8519,1.78088 -8.243,2.26422 -16.6183,4.1001 -25,5.77619 -14.2457,2.84875 -28.5741,5.22351 -43,6.95526 -21.8661,2.62494 -43.9537,5.84491 -66,5.84491 m -52,-19 v 1 l 9,6 1,-5 -10,-2 m 12,2 -1.0146,57 0.015,28 c 10.0471,-2.32556 27.2418,-7.14258 33.297,-16.01544 6.1898,-9.07019 4.8572,-25.63996 3.8727,-35.98456 -0.5559,-5.84101 0.9973,-13.73194 -2.9081,-18.72528 -5.5337,-7.0752 -24.7276,-11.94062 -33.2616,-14.27472 m -131,70 c 3.8119,9.01703 11.5433,16.85754 16.9992,25 1.7171,2.56262 3.9405,7.66205 7.1852,8.54242 5.5968,1.51855 18.2661,-11.38123 22.8156,-14.51691 21.2651,-14.6568 47.6286,-26.19171 67,-43.02551 -8.8073,-5.41455 -21.8512,-19.46381 -32,-20.88196 -6.6083,-0.9234 -18.3213,7.59515 -24,10.74304 -19.6311,10.88214 -38.4256,23.24103 -58,34.13892 m 172,-37 c 0.6352,8.99316 0.9103,19.18426 -1.2392,28 -0.9405,3.85718 -5.4583,9.89044 -3.6281,13.79016 1.5759,3.35785 6.8549,5.55328 9.8673,7.39886 8.4149,5.15546 16.7994,10.31781 25,15.81177 14.0811,9.43366 27.7674,19.6134 41,30.19904 4.3851,3.50793 10.8609,11.10724 17,10.51312 6.6634,-0.64484 12.2832,-9.19116 17,-13.28857 3.6024,-3.12946 8.9175,-6.82343 10.7121,-11.42359 3.0369,-7.78436 -18.4323,-19.68371 -23.7121,-23.62659 -19.2785,-14.39679 -39.5666,-27.14459 -60,-39.79858 -9.9469,-6.15985 -20.6922,-14.31818 -32,-17.57562 m -92,40 c 8.0793,2.30969 15.6633,7.26343 24,8.67053 11.9613,2.01892 30.0594,-14.62842 21.9722,-27.14197 -1.8432,-2.85205 -6.5855,-5.37335 -9.9722,-4.69678 -8.8121,1.76044 -31.6664,15.47535 -36,23.16822 m -97,8 27,35 h 1 l 8,-6 -16.6289,-26 -7.5556,-8.55323 -11.8155,5.55323 m 137,-1 v 1 l 4,-1 h -4 m -143,5 c -7.7931,6.64648 -27.9324,15.20239 -31.1991,25.17053 -1.3019,3.9726 2.7571,7.33594 5.2037,9.82947 5.2661,5.36719 17.6379,22.79626 25.9954,21.45758 9.365,-1.50012 20.0658,-15.2146 28,-20.45758 -3.0534,-11.20874 -18.8097,-28.96656 -28,-36"
           id="path8"
           sodipodi:nodetypes="csssssssssssscccccccccccccccccccccccccccccsssssssssccscssccsssssssssscccccccccsssccssscssccssssssssssccssscccccccccccccssscc" /></g><g
         id="g17"
         transform="translate(-230.57823,94.301086)"
         style="fill:#f9f9f9"><text
           xml:space="preserve"
           style="font-weight:600;font-size:125.526px;font-family:Poppins;-inkscape-font-specification:'Poppins Semi-Bold';text-align:center;writing-mode:lr-tb;direction:ltr;text-orientation:upright;text-anchor:middle;fill:#ff0000;stroke-width:2.47097;stroke-linecap:round;stroke-linejoin:round"
           x="1878.1652"
           y="371.7207"
           id="text9"><tspan
             sodipodi:role="line"
             id="tspan8"
             x="1878.1652"
             y="371.7207"
             style="font-style:normal;font-variant:normal;font-weight:bold;font-stretch:normal;font-family:'Noto Sans Tamil Supplement';-inkscape-font-specification:'Noto Sans Tamil Supplement Bold';fill:#ff0000;stroke-width:2.47097">DOJÔ</tspan></text><text
           xml:space="preserve"
           style="font-weight:600;font-size:125.526px;font-family:Poppins;-inkscape-font-specification:'Poppins Semi-Bold';text-align:center;writing-mode:lr-tb;direction:ltr;text-orientation:upright;text-anchor:middle;fill:#f9f9f9;stroke-width:2.47097;stroke-linecap:round;stroke-linejoin:round"
           x="1875.3151"
           y="501.47882"
           id="text14"><tspan
             sodipodi:role="line"
             x="1875.3151"
             y="501.47882"
             style="font-style:normal;font-variant:normal;font-weight:bold;font-stretch:normal;font-family:'Noto Sans Tamil Supplement';-inkscape-font-specification:'Noto Sans Tamil Supplement Bold';fill:#f9f9f9;stroke-width:2.47097"
             id="tspan14">UEMURA</tspan></text><text
           xml:space="preserve"
           style="font-style:normal;font-variant:normal;font-weight:bold;font-stretch:normal;font-size:60.6211px;font-family:'Noto Sans Tamil Supplement';-inkscape-font-specification:'Noto Sans Tamil Supplement Bold';text-align:center;writing-mode:lr-tb;direction:ltr;text-orientation:upright;text-anchor:middle;fill:#f9f9f9;stroke-width:1.19333;stroke-linecap:round;stroke-linejoin:round"
           x="1885.2545"
           y="561.36798"
           id="text15"><tspan
             sodipodi:role="line"
             id="tspan15"
             x="1885.2545"
             y="561.36798"
             style="fill:#f9f9f9;stroke-width:1.19333">JIU JITSU</tspan></text></g></g><rect
       style="fill:#ff0000;fill-opacity:1;stroke-width:1.88976;stroke-linecap:round;stroke-linejoin:round"
       id="rect21"
       width="1122.5197"
       height="793.70081"
       x="3397.5591"
       y="0" /><g
       id="g27"
       transform="translate(2302.0139,20.688599)"><g
         id="g24"
         transform="matrix(0.85648969,0,0,0.85648969,1179.3182,67.866236)"
         style="fill:#000000;fill-opacity:1"><path
           style="fill:#000000;fill-opacity:1;stroke:none"
           d="m 703.33191,19.442434 c -16.3593,1.302063 -32.6519,6.568664 -49,8.718383 -21.6208,2.843018 -43.3996,2.478577 -65,4.821778 -26.6476,2.890747 -54.3162,-0.226685 -81,-0.544007 -24.0412,-0.285888 -49.3472,-3.146484 -73,-7.607238 -5.2385,-0.987976 -21.9389,-7.779847 -26.3565,-4.321778 -3.593,2.812561 2.6512,11.988221 3.9321,14.932862 2.7749,6.378967 5.589,18.962158 11.6382,22.860351 4.4096,2.841675 11.6923,2.980042 16.7862,3.711426 37.5961,5.398071 76.0734,5.428223 114,5.428223 27.5256,0 55.6615,0.940185 83,-2.285523 14.2669,-1.683349 34.7459,0.283081 47.7253,-6.568664 3.5248,-1.860718 4.6287,-6.759461 6.1358,-10.145813 4.0785,-9.164185 10.6723,-18.812256 11.1389,-29 m -254,51.000001 4.564,13.3966 21.436,2.6034 -1,22.999995 h -33 l -1,20 h 33 l -3,64 25,2 1,-66 h 121 l 1,65 25,-1 c -0.1644,-19.86518 1.5871,-44.73255 -3,-64 h 33 v -20 h -33 l -2,-22.999995 22.0617,-2.6034 3.9383,-13.3966 -118,4 -97,-4 m 166,16 1,22.999995 h -119 l 1,-22.999995 h 117 m -97,122.999995 c -8.1078,-7.9021 -27.2691,-5.35388 -38,-6.08948 -29.8428,-2.04565 -59.6341,-5.83838 -89,-11.71069 -9.068,-1.81336 -18.0672,-3.95301 -27,-6.35108 -3.0559,-0.82037 -7.6983,-2.87872 -9.9722,0.47302 -2.9638,4.36866 -1.0278,14.56952 -1.0278,19.67823 0,6.44049 -2.4042,19.05151 1.179,24.60644 2.8377,4.39923 11.1347,5.39679 15.821,6.50928 15.1832,3.60443 30.5669,5.93121 46,8.15509 9.3592,1.34863 25.1315,6.26868 34,2.31177 23.401,-10.44098 44.6145,-26.66449 68,-37.58258 m -8,-13 c 3.0969,6.50317 10.2826,10.33545 16,14.42132 12.5887,8.99634 26.3947,21.23133 41,26.57868 0,-11.20673 4.5626,-28.38959 0.3966,-38.91052 -1.2886,-3.25422 -4.7884,-5.5271 -7.3966,-7.6651 -16.2273,-13.30188 -32.8429,-1.08075 -50,5.57562 m 101,8 c 0.6617,15.41241 17.1551,19.70782 29,26.80017 8.2411,4.93445 17.7255,13.16186 27,15.70056 6.2376,1.7074 13.7199,-0.66205 20,-1.33484 16.1356,-1.72858 32.0886,-4.38257 48,-7.56555 6.7987,-1.36005 17.1312,-1.91003 22.686,-6.44373 6.8167,-5.56372 3.9724,-29.18762 3.0285,-37.15661 -0.3886,-3.28095 -0.1586,-8.93927 -3.8626,-10.35724 -3.4445,-1.3186 -8.5015,0.86059 -11.8519,1.78088 -8.243,2.26422 -16.6183,4.1001 -25,5.77619 -14.2457,2.84875 -28.5741,5.22351 -43,6.95526 -21.8661,2.62494 -43.9537,5.84491 -66,5.84491 m -52,-19 v 1 l 9,6 1,-5 -10,-2 m 12,2 -1.0146,57 0.015,28 c 10.0471,-2.32556 27.2418,-7.14258 33.297,-16.01544 6.1898,-9.07019 4.8572,-25.63996 3.8727,-35.98456 -0.5559,-5.84101 0.9973,-13.73194 -2.9081,-18.72528 -5.5337,-7.0752 -24.7276,-11.94062 -33.2616,-14.27472 m -131,70 c 3.8119,9.01703 11.5433,16.85754 16.9992,25 1.7171,2.56262 3.9405,7.66205 7.1852,8.54242 5.5968,1.51855 18.2661,-11.38123 22.8156,-14.51691 21.2651,-14.6568 47.6286,-26.19171 67,-43.02551 -8.8073,-5.41455 -21.8512,-19.46381 -32,-20.88196 -6.6083,-0.9234 -18.3213,7.59515 -24,10.74304 -19.6311,10.88214 -38.4256,23.24103 -58,34.13892 m 172,-37 c 0.6352,8.99316 0.9103,19.18426 -1.2392,28 -0.9405,3.85718 -5.4583,9.89044 -3.6281,13.79016 1.5759,3.35785 6.8549,5.55328 9.8673,7.39886 8.4149,5.15546 16.7994,10.31781 25,15.81177 14.0811,9.43366 27.7674,19.6134 41,30.19904 4.3851,3.50793 10.8609,11.10724 17,10.51312 6.6634,-0.64484 12.2832,-9.19116 17,-13.28857 3.6024,-3.12946 8.9175,-6.82343 10.7121,-11.42359 3.0369,-7.78436 -18.4323,-19.68371 -23.7121,-23.62659 -19.2785,-14.39679 -39.5666,-27.14459 -60,-39.79858 -9.9469,-6.15985 -20.6922,-14.31818 -32,-17.57562 m -92,40 c 8.0793,2.30969 15.6633,7.26343 24,8.67053 11.9613,2.01892 30.0594,-14.62842 21.9722,-27.14197 -1.8432,-2.85205 -6.5855,-5.37335 -9.9722,-4.69678 -8.8121,1.76044 -31.6664,15.47535 -36,23.16822 m -97,8 27,35 h 1 l 8,-6 -16.6289,-26 -7.5556,-8.55323 -11.8155,5.55323 m 137,-1 v 1 l 4,-1 h -4 m -143,5 c -7.7931,6.64648 -27.9324,15.20239 -31.1991,25.17053 -1.3019,3.9726 2.7571,7.33594 5.2037,9.82947 5.2661,5.36719 17.6379,22.79626 25.9954,21.45758 9.365,-1.50012 20.0658,-15.2146 28,-20.45758 -3.0534,-11.20874 -18.8097,-28.96656 -28,-36"
           id="path21"
           sodipodi:nodetypes="csssssssssssscccccccccccccccccccccccccccccsssssssssccscssccsssssssssscccccccccsssccssscssccssssssssssccssscccccccccccccssscc" /></g><g
         id="g26"
         transform="translate(-223.96508,94.301086)"><text
           xml:space="preserve"
           style="font-weight:600;font-size:125.526px;font-family:Poppins;-inkscape-font-specification:'Poppins Semi-Bold';text-align:center;writing-mode:lr-tb;direction:ltr;text-orientation:upright;text-anchor:middle;fill:#f9f9f9;stroke-width:2.47097;stroke-linecap:round;stroke-linejoin:round"
           x="1878.1652"
           y="371.7207"
           id="text24"><tspan
             sodipodi:role="line"
             id="tspan24"
             x="1878.1652"
             y="371.7207"
             style="font-style:normal;font-variant:normal;font-weight:bold;font-stretch:normal;font-family:'Noto Sans Tamil Supplement';-inkscape-font-specification:'Noto Sans Tamil Supplement Bold';fill:#f9f9f9;stroke-width:2.47097">DOJÔ</tspan></text><text
           xml:space="preserve"
           style="font-weight:600;font-size:125.526px;font-family:Poppins;-inkscape-font-specification:'Poppins Semi-Bold';text-align:center;writing-mode:lr-tb;direction:ltr;text-orientation:upright;text-anchor:middle;fill:#ffffff;stroke-width:2.47097;stroke-linecap:round;stroke-linejoin:round"
           x="1875.3151"
           y="501.47882"
           id="text25"><tspan
             sodipodi:role="line"
             x="1875.3151"
             y="501.47882"
             style="font-style:normal;font-variant:normal;font-weight:bold;font-stretch:normal;font-family:'Noto Sans Tamil Supplement';-inkscape-font-specification:'Noto Sans Tamil Supplement Bold';fill:#000000;stroke-width:2.47097"
             id="tspan25">UEMURA</tspan></text><text
           xml:space="preserve"
           style="font-style:normal;font-variant:normal;font-weight:bold;font-stretch:normal;font-size:60.6211px;font-family:'Noto Sans Tamil Supplement';-inkscape-font-specification:'Noto Sans Tamil Supplement Bold';text-align:center;writing-mode:lr-tb;direction:ltr;text-orientation:upright;text-anchor:middle;fill:#000000;stroke-width:1.19333;stroke-linecap:round;stroke-linejoin:round"
           x="1885.2545"
           y="561.36798"
           id="text26"><tspan
             sodipodi:role="line"
             id="tspan26"
             x="1885.2545"
             y="561.36798"
             style="stroke-width:1.19333">JIU JITSU</tspan></text></g></g><rect
       style="fill:#ff0000;fill-opacity:1;stroke-width:1.88976;stroke-linecap:round;stroke-linejoin:round"
       id="rect27"
       width="1122.5197"
       height="793.70081"
       x="3397.5591"
       y="821.20526" /><g
       id="g31"
       transform="translate(2308.627,841.89388)"
       style="fill:#f9f9f9"><g
         id="g28"
         transform="matrix(0.85648969,0,0,0.85648969,1172.7051,67.866236)"
         style="fill:#f9f9f9;fill-opacity:1"><path
           style="fill:#f9f9f9;fill-opacity:1;stroke:none"
           d="m 703.33191,19.442434 c -16.3593,1.302063 -32.6519,6.568664 -49,8.718383 -21.6208,2.843018 -43.3996,2.478577 -65,4.821778 -26.6476,2.890747 -54.3162,-0.226685 -81,-0.544007 -24.0412,-0.285888 -49.3472,-3.146484 -73,-7.607238 -5.2385,-0.987976 -21.9389,-7.779847 -26.3565,-4.321778 -3.593,2.812561 2.6512,11.988221 3.9321,14.932862 2.7749,6.378967 5.589,18.962158 11.6382,22.860351 4.4096,2.841675 11.6923,2.980042 16.7862,3.711426 37.5961,5.398071 76.0734,5.428223 114,5.428223 27.5256,0 55.6615,0.940185 83,-2.285523 14.2669,-1.683349 34.7459,0.283081 47.7253,-6.568664 3.5248,-1.860718 4.6287,-6.759461 6.1358,-10.145813 4.0785,-9.164185 10.6723,-18.812256 11.1389,-29 m -254,51.000001 4.564,13.3966 21.436,2.6034 -1,22.999995 h -33 l -1,20 h 33 l -3,64 25,2 1,-66 h 121 l 1,65 25,-1 c -0.1644,-19.86518 1.5871,-44.73255 -3,-64 h 33 v -20 h -33 l -2,-22.999995 22.0617,-2.6034 3.9383,-13.3966 -118,4 -97,-4 m 166,16 1,22.999995 h -119 l 1,-22.999995 h 117 m -97,122.999995 c -8.1078,-7.9021 -27.2691,-5.35388 -38,-6.08948 -29.8428,-2.04565 -59.6341,-5.83838 -89,-11.71069 -9.068,-1.81336 -18.0672,-3.95301 -27,-6.35108 -3.0559,-0.82037 -7.6983,-2.87872 -9.9722,0.47302 -2.9638,4.36866 -1.0278,14.56952 -1.0278,19.67823 0,6.44049 -2.4042,19.05151 1.179,24.60644 2.8377,4.39923 11.1347,5.39679 15.821,6.50928 15.1832,3.60443 30.5669,5.93121 46,8.15509 9.3592,1.34863 25.1315,6.26868 34,2.31177 23.401,-10.44098 44.6145,-26.66449 68,-37.58258 m -8,-13 c 3.0969,6.50317 10.2826,10.33545 16,14.42132 12.5887,8.99634 26.3947,21.23133 41,26.57868 0,-11.20673 4.5626,-28.38959 0.3966,-38.91052 -1.2886,-3.25422 -4.7884,-5.5271 -7.3966,-7.6651 -16.2273,-13.30188 -32.8429,-1.08075 -50,5.57562 m 101,8 c 0.6617,15.41241 17.1551,19.70782 29,26.80017 8.2411,4.93445 17.7255,13.16186 27,15.70056 6.2376,1.7074 13.7199,-0.66205 20,-1.33484 16.1356,-1.72858 32.0886,-4.38257 48,-7.56555 6.7987,-1.36005 17.1312,-1.91003 22.686,-6.44373 6.8167,-5.56372 3.9724,-29.18762 3.0285,-37.15661 -0.3886,-3.28095 -0.1586,-8.93927 -3.8626,-10.35724 -3.4445,-1.3186 -8.5015,0.86059 -11.8519,1.78088 -8.243,2.26422 -16.6183,4.1001 -25,5.77619 -14.2457,2.84875 -28.5741,5.22351 -43,6.95526 -21.8661,2.62494 -43.9537,5.84491 -66,5.84491 m -52,-19 v 1 l 9,6 1,-5 -10,-2 m 12,2 -1.0146,57 0.015,28 c 10.0471,-2.32556 27.2418,-7.14258 33.297,-16.01544 6.1898,-9.07019 4.8572,-25.63996 3.8727,-35.98456 -0.5559,-5.84101 0.9973,-13.73194 -2.9081,-18.72528 -5.5337,-7.0752 -24.7276,-11.94062 -33.2616,-14.27472 m -131,70 c 3.8119,9.01703 11.5433,16.85754 16.9992,25 1.7171,2.56262 3.9405,7.66205 7.1852,8.54242 5.5968,1.51855 18.2661,-11.38123 22.8156,-14.51691 21.2651,-14.6568 47.6286,-26.19171 67,-43.02551 -8.8073,-5.41455 -21.8512,-19.46381 -32,-20.88196 -6.6083,-0.9234 -18.3213,7.59515 -24,10.74304 -19.6311,10.88214 -38.4256,23.24103 -58,34.13892 m 172,-37 c 0.6352,8.99316 0.9103,19.18426 -1.2392,28 -0.9405,3.85718 -5.4583,9.89044 -3.6281,13.79016 1.5759,3.35785 6.8549,5.55328 9.8673,7.39886 8.4149,5.15546 16.7994,10.31781 25,15.81177 14.0811,9.43366 27.7674,19.6134 41,30.19904 4.3851,3.50793 10.8609,11.10724 17,10.51312 6.6634,-0.64484 12.2832,-9.19116 17,-13.28857 3.6024,-3.12946 8.9175,-6.82343 10.7121,-11.42359 3.0369,-7.78436 -18.4323,-19.68371 -23.7121,-23.62659 -19.2785,-14.39679 -39.5666,-27.14459 -60,-39.79858 -9.9469,-6.15985 -20.6922,-14.31818 -32,-17.57562 m -92,40 c 8.0793,2.30969 15.6633,7.26343 24,8.67053 11.9613,2.01892 30.0594,-14.62842 21.9722,-27.14197 -1.8432,-2.85205 -6.5855,-5.37335 -9.9722,-4.69678 -8.8121,1.76044 -31.6664,15.47535 -36,23.16822 m -97,8 27,35 h 1 l 8,-6 -16.6289,-26 -7.5556,-8.55323 -11.8155,5.55323 m 137,-1 v 1 l 4,-1 h -4 m -143,5 c -7.7931,6.64648 -27.9324,15.20239 -31.1991,25.17053 -1.3019,3.9726 2.7571,7.33594 5.2037,9.82947 5.2661,5.36719 17.6379,22.79626 25.9954,21.45758 9.365,-1.50012 20.0658,-15.2146 28,-20.45758 -3.0534,-11.20874 -18.8097,-28.96656 -28,-36"
           id="path27"
           sodipodi:nodetypes="csssssssssssscccccccccccccccccccccccccccccsssssssssccscssccsssssssssscccccccccsssccssscssccssssssssssccssscccccccccccccssscc" /></g><g
         id="g30"
         transform="translate(-230.57823,94.301086)"
         style="fill:#f9f9f9"><text
           xml:space="preserve"
           style="font-weight:600;font-size:125.526px;font-family:Poppins;-inkscape-font-specification:'Poppins Semi-Bold';text-align:center;writing-mode:lr-tb;direction:ltr;text-orientation:upright;text-anchor:middle;fill:#000000;stroke-width:2.47097;stroke-linecap:round;stroke-linejoin:round"
           x="1878.1652"
           y="371.7207"
           id="text28"><tspan
             sodipodi:role="line"
             id="tspan28"
             x="1878.1652"
             y="371.7207"
             style="font-style:normal;font-variant:normal;font-weight:bold;font-stretch:normal;font-family:'Noto Sans Tamil Supplement';-inkscape-font-specification:'Noto Sans Tamil Supplement Bold';fill:#000000;stroke-width:2.47097">DOJÔ</tspan></text><text
           xml:space="preserve"
           style="font-weight:600;font-size:125.526px;font-family:Poppins;-inkscape-font-specification:'Poppins Semi-Bold';text-align:center;writing-mode:lr-tb;direction:ltr;text-orientation:upright;text-anchor:middle;fill:#f9f9f9;stroke-width:2.47097;stroke-linecap:round;stroke-linejoin:round"
           x="1875.3151"
           y="501.47882"
           id="text29"><tspan
             sodipodi:role="line"
             x="1875.3151"
             y="501.47882"
             style="font-style:normal;font-variant:normal;font-weight:bold;font-stretch:normal;font-family:'Noto Sans Tamil Supplement';-inkscape-font-specification:'Noto Sans Tamil Supplement Bold';fill:#f9f9f9;stroke-width:2.47097"
             id="tspan29">UEMURA</tspan></text><text
           xml:space="preserve"
           style="font-style:normal;font-variant:normal;font-weight:bold;font-stretch:normal;font-size:60.6211px;font-family:'Noto Sans Tamil Supplement';-inkscape-font-specification:'Noto Sans Tamil Supplement Bold';text-align:center;writing-mode:lr-tb;direction:ltr;text-orientation:upright;text-anchor:middle;fill:#f9f9f9;stroke-width:1.19333;stroke-linecap:round;stroke-linejoin:round"
           x="1885.2545"
           y="561.36798"
           id="text30"><tspan
             sodipodi:role="line"
             id="tspan30"
             x="1885.2545"
             y="561.36798"
             style="fill:#f9f9f9;stroke-width:1.19333">JIU JITSU</tspan></text></g></g></g></svg>
