<svg version="1.2" xmlns="http://www.w3.org/2000/svg" viewBox="0 0 297 100" width="297" height="100">
	<title>DOJO</title>
	<style>
		tspan { white-space:pre } 
		.s0 { fill: #f9f9f9 } 
		.s1 { fill: #000000 } 
		.t2 { font-size: 126px;fill: #000000;font-family: "' Noto  Sans  Tamil  Supplement'" } 
		.t3 { font-size: 61px;fill: #000000;font-family: "' Noto  Sans  Tamil  Supplement'" } 
		.t4 { font-size: 126px;fill: #f9f9f9;font-family: "' Noto  Sans  Tamil  Supplement'" } 
		.t5 { font-size: 61px;fill: #f9f9f9;font-family: "' Noto  Sans  Tamil  Supplement'" } 
		.t6 { font-size: 126px;fill: #ff0000;font-family: "' Noto  Sans  Tamil  Supplement'" } 
		.s7 { fill: #ff0000 } 
	</style>
	<g id="layer1">
		<path id="rect25" fill-rule="evenodd" class="s0" d="m299.9-58h297v210h-297z"/>
		<path id="rect26" fill-rule="evenodd" class="s1" d="m299.9 159.3h297v210h-297z"/>
		<g id="g15">
			<g id="g2">
				<path id="path2" class="s1" d="m481.5-30.2c-3.7 0.3-7.4 1.5-11.1 2-4.9 0.7-9.9 0.6-14.8 1.1-6 0.7-12.3 0-18.3-0.1-5.5-0.1-11.2-0.7-16.6-1.7-1.2-0.3-4.9-1.8-5.9-1-0.9 0.6 0.6 2.7 0.8 3.4 0.7 1.4 1.3 4.3 2.7 5.1 1 0.7 2.6 0.7 3.8 0.9 8.5 1.2 17.2 1.2 25.8 1.2 6.3 0 12.6 0.2 18.8-0.5 3.3-0.4 7.9 0.1 10.8-1.5 0.8-0.4 1.1-1.5 1.4-2.3 1-2.1 2.5-4.3 2.6-6.6zm-57.6 11.6l1 3 4.9 0.6-0.2 5.2h-7.5l-0.2 4.6h7.4l-0.6 14.5 5.6 0.4 0.3-14.9h27.4l0.2 14.7 5.7-0.2c-0.1-4.5 0.3-10.2-0.7-14.5h7.5v-4.6h-7.5l-0.5-5.2 5-0.6 0.9-3-26.7 0.9zm37.6 3.6l0.2 5.2h-26.9l0.2-5.2zm-22 27.9c-1.8-1.8-6.2-1.2-8.6-1.4-6.8-0.4-13.5-1.3-20.2-2.6q-3.1-0.7-6.1-1.5c-0.7-0.2-1.7-0.6-2.3 0.1-0.6 1-0.2 3.3-0.2 4.5 0 1.5-0.5 4.3 0.3 5.6 0.6 1 2.5 1.2 3.6 1.4 3.4 0.9 6.9 1.4 10.4 1.9 2.1 0.3 5.7 1.4 7.7 0.5 5.3-2.4 10.1-6 15.4-8.5zm-1.8-2.9c0.7 1.4 2.3 2.3 3.6 3.2 2.9 2.1 6 4.8 9.3 6 0-2.5 1-6.4 0.1-8.8-0.3-0.7-1.1-1.2-1.7-1.7-3.7-3-7.4-0.3-11.3 1.3zm22.9 1.8c0.1 3.5 3.9 4.4 6.6 6 1.8 1.2 4 3 6.1 3.6 1.4 0.4 3.1-0.2 4.5-0.3 3.7-0.4 7.3-1 10.9-1.7 1.5-0.3 3.9-0.5 5.1-1.5 1.6-1.2 0.9-6.6 0.7-8.4-0.1-0.7 0-2-0.9-2.3-0.7-0.3-1.9 0.1-2.7 0.4-1.8 0.5-3.7 0.9-5.6 1.3q-4.9 0.9-9.8 1.5c-4.9 0.6-9.9 1.4-14.9 1.4zm-11.8-4.3v0.2l2 1.3 0.3-1.1zm2.7 0.5l-0.2 12.9v6.3c2.2-0.5 6.1-1.6 7.5-3.6 1.4-2.1 1.1-5.8 0.9-8.2-0.1-1.3 0.2-3.1-0.7-4.2-1.2-1.6-5.6-2.7-7.5-3.2zm-29.7 15.8c0.9 2.1 2.6 3.8 3.8 5.7 0.4 0.6 0.9 1.7 1.7 1.9 1.2 0.4 4.1-2.5 5.1-3.3 4.9-3.3 10.8-5.9 15.2-9.7-2-1.2-4.9-4.4-7.2-4.7-1.5-0.3-4.2 1.7-5.5 2.4-4.4 2.5-8.7 5.3-13.1 7.7zm39-8.4c0.1 2.1 0.2 4.4-0.3 6.4-0.2 0.9-1.2 2.2-0.8 3.1 0.3 0.8 1.5 1.3 2.2 1.7 1.9 1.2 3.8 2.3 5.7 3.6 3.2 2.1 6.3 4.4 9.3 6.8 1 0.8 2.4 2.5 3.8 2.4 1.5-0.1 2.8-2.1 3.9-3 0.8-0.7 2-1.6 2.4-2.6 0.7-1.8-4.2-4.5-5.4-5.4-4.3-3.2-8.9-6.1-13.6-9-2.2-1.4-4.7-3.2-7.2-4zm-20.9 9.1c1.9 0.5 3.6 1.7 5.5 2 2.7 0.4 6.8-3.3 4.9-6.2-0.4-0.6-1.5-1.2-2.2-1-2 0.4-7.2 3.5-8.2 5.2zm-22 1.8l6.2 8h0.2l1.8-1.4-3.8-5.9-1.7-1.9zm31.1-0.3v0.3l0.9-0.3zm-32.4 1.2c-1.8 1.5-6.4 3.4-7.1 5.7-0.3 0.9 0.6 1.6 1.2 2.2 1.2 1.2 4 5.2 5.9 4.9 2.1-0.4 4.5-3.5 6.3-4.7-0.7-2.5-4.3-6.5-6.3-8.1z"/>
			</g>
			<g id="g10">
				<text id="tspan7" style="transform: matrix(.265,0,0,.265,447.721,70.775)" >
					<tspan x="-166.3" y="0" class="t2">DOJÔ
</tspan>
				</text>
				<text id="tspan9" style="transform: matrix(.265,0,0,.265,446.967,105.107)" >
					<tspan x="-270.7" y="0" class="t2">UEMURA
</tspan>
				</text>
				<text id="tspan10" style="transform: matrix(.265,0,0,.265,449.597,120.953)" >
					<tspan x="-128.3" y="0" class="t3">JIU JITSU
</tspan>
				</text>
			</g>
		</g>
		<g id="g14">
			<g id="g11">
				<path id="path10" class="s1" d="m97.6 11.9c-3.7 0.3-7.4 1.5-11.1 2-4.9 0.6-9.8 0.6-14.7 1.1-6.1 0.7-12.3-0.1-18.4-0.1-5.4-0.1-11.2-0.7-16.5-1.8-1.2-0.2-5-1.7-6-0.9-0.8 0.6 0.6 2.7 0.9 3.4 0.6 1.4 1.3 4.3 2.6 5.1 1 0.7 2.7 0.7 3.8 0.9 8.6 1.2 17.3 1.2 25.9 1.2 6.2 0 12.6 0.2 18.8-0.5 3.2-0.4 7.9 0.1 10.8-1.5 0.8-0.4 1-1.5 1.4-2.3 0.9-2.1 2.4-4.3 2.5-6.6zm-57.5 11.6l1 3 4.8 0.6-0.2 5.2h-7.5l-0.2 4.6h7.5l-0.7 14.5 5.7 0.4 0.2-14.9h27.4l0.3 14.7 5.6-0.2c0-4.5 0.4-10.2-0.7-14.5h7.5v-4.6h-7.5l-0.4-5.2 5-0.6 0.9-3-26.8 0.9zm37.7 3.6l0.2 5.2h-27l0.2-5.2zm-21.9 27.9c-1.9-1.8-6.2-1.2-8.7-1.4-6.7-0.5-13.5-1.3-20.1-2.6q-3.1-0.7-6.1-1.5c-0.7-0.2-1.8-0.6-2.3 0.1-0.7 1-0.2 3.3-0.2 4.5 0 1.4-0.6 4.3 0.2 5.6 0.7 1 2.6 1.2 3.6 1.4 3.5 0.9 6.9 1.4 10.4 1.9 2.2 0.3 5.7 1.4 7.7 0.5 5.4-2.4 10.2-6 15.5-8.5zm-1.9-3c0.7 1.5 2.4 2.4 3.7 3.3 2.8 2.1 6 4.8 9.3 6 0-2.5 1-6.4 0.1-8.8-0.3-0.7-1.1-1.2-1.7-1.7-3.7-3-7.5-0.3-11.4 1.2zm22.9 1.9c0.2 3.5 3.9 4.4 6.6 6 1.9 1.1 4 3 6.1 3.6 1.4 0.4 3.1-0.2 4.6-0.3 3.6-0.4 7.2-1 10.8-1.7 1.6-0.3 3.9-0.5 5.2-1.5 1.5-1.2 0.9-6.6 0.7-8.4-0.1-0.8-0.1-2-0.9-2.4-0.8-0.3-1.9 0.2-2.7 0.4-1.9 0.6-3.8 1-5.7 1.4q-4.8 0.9-9.7 1.5c-5 0.6-10 1.4-15 1.4zm-11.8-4.3v0.2l2.1 1.3 0.2-1.1zm2.7 0.5l-0.2 12.9v6.3c2.3-0.5 6.2-1.6 7.6-3.6 1.4-2.1 1.1-5.8 0.8-8.2-0.1-1.3 0.3-3.1-0.6-4.2-1.3-1.6-5.6-2.7-7.6-3.2zm-29.7 15.8c0.9 2.1 2.7 3.8 3.9 5.7 0.4 0.6 0.9 1.7 1.6 1.9 1.3 0.4 4.2-2.6 5.2-3.3 4.8-3.3 10.8-5.9 15.2-9.7-2-1.2-5-4.4-7.3-4.7-1.5-0.3-4.1 1.7-5.4 2.4-4.5 2.5-8.7 5.3-13.2 7.7zm39-8.4c0.2 2.1 0.2 4.4-0.3 6.4-0.2 0.9-1.2 2.2-0.8 3.1 0.4 0.8 1.6 1.3 2.3 1.7 1.9 1.2 3.8 2.3 5.6 3.6 3.2 2.1 6.3 4.4 9.3 6.8 1 0.8 2.5 2.5 3.9 2.4 1.5-0.2 2.8-2.1 3.8-3 0.8-0.7 2-1.6 2.4-2.6 0.7-1.8-4.1-4.5-5.3-5.4-4.4-3.2-9-6.1-13.6-9-2.3-1.4-4.7-3.2-7.3-4zm-20.8 9.1c1.8 0.5 3.5 1.6 5.4 2 2.7 0.4 6.8-3.3 5-6.2-0.4-0.6-1.5-1.2-2.3-1-2 0.4-7.1 3.5-8.1 5.2zm-22 1.8l6.1 7.9h0.2l1.9-1.3-3.8-5.9-1.7-1.9zm31-0.3v0.3l0.9-0.3zm-32.4 1.2c-1.7 1.5-6.3 3.4-7 5.7-0.3 0.9 0.6 1.6 1.1 2.2 1.2 1.2 4 5.2 5.9 4.9 2.1-0.4 4.6-3.5 6.4-4.7-0.7-2.5-4.3-6.5-6.4-8.1z"/>
			</g>
			<g id="g13">
				<text id="tspan11" style="transform: matrix(.265,0,0,.265,199.848,35.704)" >
					<tspan x="-166.3" y="0" class="t2">DOJÔ
</tspan>
				</text>
				<text id="tspan12" style="transform: matrix(.265,0,0,.265,199.094,70.035)" >
					<tspan x="-270.7" y="0" class="t2">UEMURA
</tspan>
				</text>
				<text id="tspan13" style="transform: matrix(.265,0,0,.265,201.724,85.881)" >
					<tspan x="-128.3" y="0" class="t3">JIU JITSU
</tspan>
				</text>
			</g>
		</g>
		<g id="g19">
			<g id="g16">
				<path id="path16" class="s0" d="m481.5 180.7c-3.7 0.3-7.4 1.5-11.1 2-4.9 0.7-9.9 0.6-14.8 1.1-6 0.7-12.3 0-18.3-0.1-5.5-0.1-11.2-0.7-16.6-1.7-1.2-0.3-4.9-1.8-5.9-1-0.9 0.6 0.6 2.7 0.8 3.4 0.7 1.4 1.3 4.3 2.7 5.1 1 0.7 2.6 0.7 3.8 0.9 8.5 1.2 17.2 1.2 25.8 1.2 6.3 0 12.6 0.2 18.8-0.5 3.3-0.4 7.9 0.1 10.8-1.5 0.8-0.4 1.1-1.5 1.4-2.3 1-2.1 2.5-4.3 2.6-6.6zm-57.6 11.6l1 3 4.9 0.6-0.2 5.2h-7.5l-0.2 4.6h7.4l-0.6 14.5 5.6 0.4 0.3-14.9h27.4l0.2 14.7 5.7-0.2c-0.1-4.5 0.3-10.2-0.7-14.5h7.5v-4.6h-7.5l-0.5-5.2 5-0.6 0.9-3-26.7 0.9zm37.6 3.6l0.2 5.2h-26.9l0.2-5.2zm-22 27.9c-1.8-1.8-6.2-1.2-8.6-1.4-6.8-0.4-13.5-1.3-20.2-2.6q-3.1-0.7-6.1-1.5c-0.7-0.2-1.7-0.6-2.3 0.1-0.6 1-0.2 3.3-0.2 4.5 0 1.5-0.5 4.3 0.3 5.6 0.6 1 2.5 1.2 3.6 1.4 3.4 0.9 6.9 1.4 10.4 1.9 2.1 0.3 5.7 1.4 7.7 0.5 5.3-2.3 10.1-6 15.4-8.5zm-1.8-2.9c0.7 1.4 2.3 2.3 3.6 3.2 2.9 2.1 6 4.8 9.3 6 0-2.5 1-6.4 0.1-8.8-0.3-0.7-1.1-1.2-1.7-1.7-3.7-3-7.4-0.3-11.3 1.3zm22.9 1.8c0.1 3.5 3.9 4.4 6.6 6 1.8 1.2 4 3 6.1 3.6 1.4 0.4 3.1-0.1 4.5-0.3 3.7-0.4 7.3-1 10.9-1.7 1.5-0.3 3.9-0.4 5.1-1.5 1.6-1.2 0.9-6.6 0.7-8.4-0.1-0.7 0-2-0.9-2.3-0.7-0.3-1.9 0.2-2.7 0.4-1.8 0.5-3.7 0.9-5.6 1.3q-4.9 0.9-9.8 1.5c-4.9 0.6-9.9 1.4-14.9 1.4zm-11.8-4.3v0.2l2 1.3 0.3-1.1zm2.7 0.5l-0.2 12.9v6.3c2.2-0.5 6.1-1.6 7.5-3.6 1.4-2.1 1.1-5.8 0.9-8.2-0.1-1.3 0.2-3.1-0.7-4.2-1.2-1.6-5.6-2.7-7.5-3.2zm-29.7 15.8c0.9 2.1 2.6 3.9 3.8 5.7 0.4 0.6 0.9 1.7 1.7 1.9 1.2 0.4 4.1-2.5 5.1-3.3 4.9-3.3 10.8-5.9 15.2-9.7-2-1.2-4.9-4.4-7.2-4.7-1.5-0.2-4.2 1.7-5.5 2.4-4.4 2.5-8.7 5.3-13.1 7.7zm39-8.4c0.1 2.1 0.2 4.4-0.3 6.4-0.2 0.9-1.2 2.2-0.8 3.1 0.3 0.8 1.5 1.3 2.2 1.7 1.9 1.2 3.8 2.3 5.7 3.6 3.2 2.1 6.3 4.4 9.3 6.8 1 0.8 2.4 2.5 3.8 2.4 1.5-0.1 2.8-2.1 3.9-3 0.8-0.7 2-1.6 2.4-2.6 0.7-1.8-4.2-4.5-5.4-5.4-4.3-3.2-8.9-6.1-13.6-9-2.2-1.4-4.7-3.2-7.2-4zm-20.9 9.1c1.9 0.5 3.6 1.7 5.5 2 2.7 0.4 6.8-3.3 4.9-6.2-0.4-0.6-1.5-1.2-2.2-1-2 0.4-7.2 3.5-8.2 5.2zm-22 1.8l6.2 8h0.2l1.8-1.4-3.8-5.9-1.7-1.9zm31.1-0.3v0.3l0.9-0.3zm-32.4 1.2c-1.8 1.5-6.4 3.4-7.1 5.7-0.3 0.9 0.6 1.6 1.2 2.2 1.2 1.2 4 5.2 5.9 4.9 2.1-0.4 4.5-3.5 6.3-4.7-0.7-2.5-4.3-6.5-6.3-8.1z"/>
			</g>
			<g id="g18">
				<text id="tspan16" style="transform: matrix(.265,0,0,.265,447.721,281.678)" >
					<tspan x="-166.3" y="0" class="t4">DOJÔ
</tspan>
				</text>
				<text id="tspan17" style="transform: matrix(.265,0,0,.265,446.967,316.01)" >
					<tspan x="-270.7" y="0" class="t4">UEMURA
</tspan>
				</text>
				<text id="tspan18" style="transform: matrix(.265,0,0,.265,449.597,331.856)" >
					<tspan x="-128.3" y="0" class="t5">JIU JITSU
</tspan>
				</text>
			</g>
		</g>
		<path id="rect23" fill-rule="evenodd" class="s1" d="m0.3 159.3h297v210h-297z"/>
		<g id="g23">
			<g id="g20">
				<path id="path19" class="s0" d="m97.6 222.8c-3.7 0.3-7.4 1.5-11.1 2-4.9 0.7-9.8 0.6-14.7 1.1-6.1 0.7-12.3-0.1-18.4-0.1-5.4-0.1-11.2-0.7-16.5-1.7-1.2-0.3-5-1.8-6-1-0.8 0.6 0.6 2.7 0.9 3.4 0.6 1.4 1.3 4.3 2.6 5.1 1 0.7 2.7 0.7 3.8 0.9 8.6 1.2 17.3 1.2 25.9 1.2 6.2 0 12.6 0.2 18.8-0.5 3.2-0.4 7.9 0.1 10.8-1.5 0.8-0.4 1-1.5 1.4-2.3 0.9-2.1 2.4-4.3 2.5-6.6zm-57.5 11.6l1 3 4.8 0.6-0.2 5.2h-7.5l-0.2 4.6h7.5l-0.7 14.5 5.7 0.4 0.2-14.9h27.4l0.3 14.7 5.6-0.2c0-4.5 0.4-10.2-0.7-14.5h7.5v-4.6h-7.5l-0.4-5.2 5-0.6 0.9-3-26.8 0.9zm37.7 3.6l0.2 5.2h-27l0.2-5.2zm-21.9 27.9c-1.9-1.8-6.2-1.2-8.7-1.4-6.7-0.4-13.5-1.3-20.1-2.6q-3.1-0.7-6.1-1.5c-0.7-0.2-1.8-0.6-2.3 0.1-0.7 1-0.2 3.3-0.2 4.5 0 1.4-0.6 4.3 0.2 5.6 0.7 1 2.6 1.2 3.6 1.4 3.5 0.9 6.9 1.4 10.4 1.9 2.2 0.3 5.7 1.4 7.7 0.5 5.4-2.4 10.2-6 15.5-8.5zm-1.9-3c0.7 1.5 2.4 2.4 3.7 3.3 2.8 2.1 6 4.8 9.3 6 0-2.5 1-6.4 0.1-8.8-0.3-0.7-1.1-1.2-1.7-1.7-3.7-3-7.5-0.3-11.4 1.2zm22.9 1.9c0.2 3.5 3.9 4.4 6.6 6 1.9 1.2 4 3 6.1 3.6 1.4 0.4 3.1-0.2 4.6-0.3 3.6-0.4 7.2-1 10.8-1.7 1.6-0.3 3.9-0.5 5.2-1.5 1.5-1.2 0.9-6.6 0.7-8.4-0.1-0.7-0.1-2-0.9-2.4-0.8-0.3-1.9 0.2-2.7 0.5-1.9 0.5-3.8 0.9-5.7 1.3q-4.8 0.9-9.7 1.5c-5 0.6-10 1.4-15 1.4zm-11.8-4.3v0.2l2.1 1.3 0.2-1.1zm2.7 0.5l-0.2 12.9v6.3c2.3-0.5 6.2-1.6 7.6-3.6 1.4-2.1 1.1-5.8 0.8-8.2-0.1-1.3 0.3-3.1-0.6-4.2-1.3-1.6-5.6-2.7-7.6-3.2zm-29.7 15.8c0.9 2.1 2.7 3.8 3.9 5.7 0.4 0.6 0.9 1.7 1.6 1.9 1.3 0.4 4.2-2.6 5.2-3.3 4.8-3.3 10.8-5.9 15.2-9.7-2-1.2-5-4.4-7.3-4.7-1.5-0.3-4.1 1.7-5.4 2.4-4.5 2.5-8.7 5.3-13.2 7.7zm39-8.4c0.2 2.1 0.2 4.4-0.3 6.4-0.2 0.9-1.2 2.2-0.8 3.1 0.4 0.8 1.6 1.3 2.3 1.7 1.9 1.2 3.8 2.3 5.6 3.6 3.2 2.1 6.3 4.4 9.3 6.8 1 0.8 2.5 2.5 3.9 2.4 1.5-0.2 2.8-2.1 3.8-3 0.8-0.7 2-1.6 2.4-2.6 0.7-1.8-4.1-4.5-5.3-5.4-4.4-3.2-9-6.1-13.6-9-2.3-1.4-4.7-3.2-7.3-4zm-20.8 9.1c1.8 0.5 3.5 1.7 5.4 2 2.7 0.4 6.8-3.3 5-6.2-0.4-0.6-1.5-1.2-2.3-1-2 0.4-7.1 3.5-8.1 5.2zm-22 1.8l6.1 7.9h0.2l1.9-1.3-3.8-5.9-1.7-1.9zm31-0.3v0.3l0.9-0.3zm-32.4 1.2c-1.7 1.5-6.3 3.4-7 5.7-0.3 0.9 0.6 1.6 1.1 2.2 1.2 1.2 4 5.2 5.9 4.9 2.1-0.4 4.6-3.5 6.4-4.7-0.7-2.5-4.3-6.5-6.4-8.1z"/>
			</g>
			<g id="g22">
				<text id="tspan20" style="transform: matrix(.265,0,0,.265,199.848,246.607)" >
					<tspan x="-166.3" y="0" class="t4">DOJÔ
</tspan>
				</text>
				<text id="tspan21" style="transform: matrix(.265,0,0,.265,199.094,280.938)" >
					<tspan x="-270.7" y="0" class="t4">UEMURA
</tspan>
				</text>
				<text id="tspan22" style="transform: matrix(.265,0,0,.265,201.724,296.784)" >
					<tspan x="-128.3" y="0" class="t5">JIU JITSU
</tspan>
				</text>
			</g>
		</g>
		<path id="rect8" fill-rule="evenodd" class="s0" d="m599.6-58h297v210h-297z"/>
		<g id="g7">
			<g id="g4">
				<path id="path4" class="s1" d="m781.1-30.2c-3.7 0.3-7.4 1.5-11.1 2-4.9 0.7-9.8 0.6-14.7 1.1-6.1 0.7-12.3 0-18.4-0.1-5.4-0.1-11.2-0.7-16.5-1.7-1.2-0.3-5-1.8-6-1-0.8 0.6 0.6 2.7 0.9 3.4 0.6 1.4 1.3 4.3 2.6 5.1 1 0.7 2.7 0.7 3.8 0.9 8.6 1.2 17.3 1.2 25.9 1.2 6.2 0 12.6 0.2 18.8-0.5 3.2-0.4 7.8 0.1 10.8-1.5 0.8-0.4 1-1.5 1.4-2.3 0.9-2.1 2.4-4.3 2.5-6.6zm-57.6 11.6l1.1 3 4.8 0.6-0.2 5.2h-7.5l-0.2 4.6h7.5l-0.7 14.5 5.7 0.4 0.2-14.9h27.4l0.2 14.7 5.7-0.2c0-4.5 0.4-10.2-0.7-14.5h7.5v-4.6h-7.5l-0.4-5.2 5-0.6 0.9-3-26.8 0.9zm37.6 3.6l0.3 5.2h-27l0.2-5.2zm-22 27.9c-1.8-1.8-6.1-1.2-8.6-1.4-6.7-0.4-13.5-1.3-20.1-2.6q-3.1-0.7-6.1-1.5c-0.7-0.2-1.8-0.6-2.3 0.1-0.7 1-0.2 3.3-0.2 4.5 0 1.5-0.6 4.3 0.2 5.6 0.7 1 2.5 1.2 3.6 1.4 3.5 0.9 6.9 1.4 10.4 1.9 2.2 0.3 5.7 1.4 7.7 0.5 5.3-2.4 10.2-6 15.4-8.5zm-1.8-2.9c0.7 1.4 2.4 2.3 3.7 3.2 2.8 2.1 5.9 4.8 9.3 6 0-2.5 1-6.4 0-8.8-0.2-0.7-1-1.2-1.6-1.7-3.7-3-7.5-0.3-11.4 1.3zm22.9 1.8c0.2 3.5 3.9 4.4 6.6 6 1.9 1.2 4 3 6.1 3.6 1.4 0.4 3.1-0.2 4.5-0.3 3.7-0.4 7.3-1 10.9-1.7 1.6-0.3 3.9-0.5 5.2-1.5 1.5-1.2 0.9-6.6 0.7-8.4-0.1-0.7-0.1-2-0.9-2.3-0.8-0.3-2 0.1-2.7 0.4-1.9 0.5-3.8 0.9-5.7 1.3q-4.8 0.9-9.7 1.5c-5 0.6-10 1.4-15 1.4zm-11.8-4.3v0.2l2.1 1.3 0.2-1.1zm2.7 0.5l-0.2 12.9v6.3c2.3-0.5 6.2-1.6 7.5-3.6 1.4-2.1 1.1-5.8 0.9-8.2-0.1-1.3 0.2-3.1-0.6-4.2-1.3-1.6-5.6-2.7-7.6-3.2zm-29.7 15.8c0.9 2.1 2.7 3.8 3.9 5.7 0.4 0.6 0.9 1.7 1.6 1.9 1.3 0.4 4.2-2.5 5.2-3.3 4.8-3.3 10.8-5.9 15.2-9.7-2-1.2-5-4.4-7.3-4.7-1.5-0.3-4.1 1.7-5.4 2.4-4.5 2.5-8.7 5.3-13.2 7.7zm39-8.4c0.2 2.1 0.2 4.4-0.3 6.4-0.2 0.9-1.2 2.2-0.8 3.1 0.4 0.8 1.6 1.3 2.3 1.7 1.9 1.2 3.8 2.3 5.6 3.6 3.2 2.1 6.3 4.4 9.3 6.8 1 0.8 2.5 2.5 3.9 2.4 1.5-0.1 2.7-2.1 3.8-3 0.8-0.7 2-1.6 2.4-2.6 0.7-1.8-4.1-4.5-5.3-5.4-4.4-3.2-9-6.1-13.6-9-2.3-1.4-4.7-3.2-7.3-4zm-20.8 9.1c1.8 0.5 3.5 1.7 5.4 2 2.7 0.4 6.8-3.3 5-6.2-0.4-0.6-1.5-1.2-2.3-1-2 0.4-7.1 3.5-8.1 5.2zm-22 1.8l6.1 8h0.2l1.8-1.4-3.7-5.9-1.7-1.9zm31-0.3v0.3l0.9-0.3zm-32.4 1.2c-1.8 1.5-6.3 3.4-7.1 5.7-0.3 0.9 0.7 1.6 1.2 2.2 1.2 1.2 4 5.2 5.9 4.9 2.1-0.4 4.6-3.5 6.4-4.7-0.7-2.5-4.3-6.5-6.4-8.1z"/>
			</g>
			<g id="g6">
				<text id="tspan4" style="transform: matrix(.265,0,0,.265,747.367,70.775)" >
					<tspan x="-166.3" y="0" class="t6">DOJÔ
</tspan>
				</text>
				<text id="tspan5" style="transform: matrix(.265,0,0,.265,746.613,105.107)" >
					<tspan x="-270.7" y="0" class="t2">UEMURA
</tspan>
				</text>
				<text id="tspan6" style="transform: matrix(.265,0,0,.265,749.243,120.953)" >
					<tspan x="-128.3" y="0" class="t3">JIU JITSU
</tspan>
				</text>
			</g>
		</g>
		<path id="rect7" fill-rule="evenodd" class="s1" d="m599.6 159.3h297v210h-297z"/>
		<g id="g21">
			<g id="g8">
				<path id="path8" class="s0" d="m781.1 187.1c-3.7 0.3-7.4 1.5-11.1 2-4.9 0.6-9.8 0.6-14.7 1.1-6.1 0.6-12.3-0.1-18.4-0.1-5.4-0.1-11.2-0.8-16.5-1.8-1.2-0.2-5-1.7-6-0.9-0.8 0.6 0.6 2.7 0.9 3.3 0.6 1.5 1.3 4.3 2.6 5.2 1 0.7 2.7 0.7 3.8 0.9 8.6 1.2 17.3 1.2 25.9 1.2 6.2 0 12.6 0.2 18.8-0.5 3.2-0.4 7.8 0 10.8-1.5 0.8-0.4 1-1.5 1.4-2.3 0.9-2.1 2.4-4.3 2.5-6.6zm-57.6 11.6l1.1 3 4.8 0.6-0.2 5.2h-7.5l-0.2 4.5h7.5l-0.7 14.5 5.7 0.5 0.2-15h27.4l0.2 14.8 5.7-0.3c0-4.5 0.4-10.1-0.7-14.5h7.5v-4.5h-7.5l-0.4-5.2 5-0.6 0.9-3-26.8 0.9zm37.6 3.6l0.3 5.2h-27l0.2-5.2zm-22 27.9c-1.8-1.8-6.1-1.2-8.6-1.4-6.7-0.5-13.5-1.3-20.1-2.7q-3.1-0.6-6.1-1.4c-0.7-0.2-1.8-0.6-2.3 0.1-0.7 1-0.2 3.3-0.2 4.5 0 1.4-0.6 4.3 0.2 5.5 0.7 1 2.5 1.3 3.6 1.5 3.5 0.8 6.9 1.4 10.4 1.9 2.2 0.3 5.7 1.4 7.7 0.5 5.3-2.4 10.2-6 15.4-8.5zm-1.8-3c0.7 1.5 2.4 2.4 3.7 3.3 2.8 2 5.9 4.8 9.3 6 0-2.5 1-6.4 0-8.8-0.2-0.7-1-1.2-1.6-1.7-3.7-3-7.5-0.3-11.4 1.2zm22.9 1.8c0.2 3.5 3.9 4.5 6.6 6.1 1.9 1.1 4 3 6.1 3.6 1.4 0.4 3.1-0.2 4.5-0.3 3.7-0.4 7.3-1 10.9-1.7 1.6-0.4 3.9-0.5 5.2-1.5 1.5-1.3 0.9-6.6 0.7-8.4-0.1-0.8-0.1-2-0.9-2.4-0.8-0.3-2 0.2-2.7 0.4-1.9 0.5-3.8 1-5.7 1.3q-4.8 1-9.7 1.6c-5 0.6-10 1.3-15 1.3zm-11.8-4.3v0.3l2.1 1.3 0.2-1.1zm2.7 0.4l-0.2 13v6.3c2.3-0.5 6.2-1.6 7.5-3.6 1.4-2.1 1.1-5.8 0.9-8.2-0.1-1.3 0.2-3.1-0.6-4.2-1.3-1.6-5.6-2.7-7.6-3.3zm-29.7 15.9c0.9 2.1 2.7 3.8 3.9 5.7 0.4 0.6 0.9 1.7 1.6 1.9 1.3 0.4 4.2-2.6 5.2-3.3 4.8-3.3 10.8-5.9 15.2-9.7-2-1.3-5-4.4-7.3-4.8-1.5-0.2-4.1 1.8-5.4 2.5-4.5 2.4-8.7 5.2-13.2 7.7zm39-8.4c0.2 2.1 0.2 4.4-0.3 6.4-0.2 0.8-1.2 2.2-0.8 3.1 0.4 0.8 1.6 1.3 2.3 1.7 1.9 1.1 3.8 2.3 5.6 3.6 3.2 2.1 6.3 4.4 9.3 6.8 1 0.8 2.5 2.5 3.9 2.4 1.5-0.2 2.7-2.1 3.8-3 0.8-0.7 2-1.6 2.4-2.6 0.7-1.8-4.1-4.5-5.3-5.4-4.4-3.2-9-6.1-13.6-9-2.3-1.4-4.7-3.2-7.3-4zm-20.8 9.1c1.8 0.5 3.5 1.6 5.4 2 2.7 0.4 6.8-3.4 5-6.2-0.4-0.6-1.5-1.2-2.3-1.1-2 0.4-7.1 3.5-8.1 5.3zm-22 1.8l6.1 7.9h0.2l1.8-1.3-3.7-5.9-1.7-2zm31-0.2v0.2l0.9-0.2zm-32.4 1.1c-1.8 1.6-6.3 3.5-7.1 5.8-0.3 0.9 0.7 1.6 1.2 2.2 1.2 1.2 4 5.1 5.9 4.8 2.1-0.3 4.6-3.4 6.4-4.6-0.7-2.5-4.3-6.6-6.4-8.2z"/>
			</g>
			<g id="g17">
				<text id="tspan8" style="transform: matrix(.265,0,0,.265,747.367,288.053)" >
					<tspan x="-166.3" y="0" class="t6">DOJÔ
</tspan>
				</text>
				<text id="tspan14" style="transform: matrix(.265,0,0,.265,746.613,322.385)" >
					<tspan x="-270.7" y="0" class="t4">UEMURA
</tspan>
				</text>
				<text id="tspan15" style="transform: matrix(.265,0,0,.265,749.243,338.23)" >
					<tspan x="-128.3" y="0" class="t5">JIU JITSU
</tspan>
				</text>
			</g>
		</g>
		<path id="rect21" fill-rule="evenodd" class="s7" d="m899.2-58h297v210h-297z"/>
		<g id="g27">
			<g id="g24">
				<path id="path21" class="s1" d="m1080.8-30.2c-3.8 0.3-7.4 1.5-11.2 2-4.9 0.7-9.8 0.6-14.7 1.1-6 0.7-12.3 0-18.3-0.1-5.5-0.1-11.2-0.7-16.6-1.7-1.2-0.3-5-1.8-6-1-0.8 0.6 0.6 2.7 0.9 3.4 0.7 1.4 1.3 4.3 2.7 5.1 1 0.7 2.6 0.7 3.8 0.9 8.5 1.2 17.2 1.2 25.8 1.2 6.3 0 12.6 0.2 18.8-0.5 3.3-0.4 7.9 0.1 10.8-1.5 0.8-0.4 1.1-1.5 1.4-2.3 1-2.1 2.4-4.3 2.6-6.6zm-57.6 11.6l1 3 4.9 0.6-0.2 5.2h-7.5l-0.2 4.6h7.4l-0.6 14.5 5.6 0.4 0.2-14.9h27.5l0.2 14.7 5.7-0.2c-0.1-4.5 0.3-10.2-0.7-14.5h7.5v-4.6h-7.5l-0.5-5.2 5-0.6 0.9-3-26.7 0.9zm37.6 3.6l0.2 5.2h-26.9l0.2-5.2zm-22 27.9c-1.8-1.8-6.2-1.2-8.6-1.4-6.8-0.4-13.5-1.3-20.2-2.6q-3.1-0.7-6.1-1.5c-0.7-0.2-1.7-0.6-2.3 0.1-0.6 1-0.2 3.3-0.2 4.5 0 1.5-0.5 4.3 0.3 5.6 0.6 1 2.5 1.2 3.6 1.4 3.4 0.9 6.9 1.4 10.4 1.9 2.1 0.3 5.7 1.4 7.7 0.5 5.3-2.4 10.1-6 15.4-8.5zm-1.8-2.9c0.7 1.4 2.3 2.3 3.6 3.2 2.9 2.1 6 4.8 9.3 6 0-2.5 1-6.4 0.1-8.8-0.3-0.7-1.1-1.2-1.7-1.7-3.7-3-7.4-0.3-11.3 1.3zm22.9 1.8c0.1 3.5 3.9 4.4 6.5 6 1.9 1.2 4.1 3 6.2 3.6 1.4 0.4 3.1-0.2 4.5-0.3 3.6-0.4 7.3-1 10.9-1.7 1.5-0.3 3.9-0.5 5.1-1.5 1.6-1.2 0.9-6.6 0.7-8.4-0.1-0.7 0-2-0.9-2.3-0.8-0.3-1.9 0.1-2.7 0.4-1.8 0.5-3.7 0.9-5.6 1.3q-4.9 0.9-9.8 1.5c-4.9 0.6-9.9 1.4-14.9 1.4zm-11.8-4.3v0.2l2 1.3 0.3-1.1zm2.7 0.5l-0.3 12.9v6.3c2.3-0.5 6.2-1.6 7.6-3.6 1.4-2.1 1.1-5.8 0.9-8.2-0.2-1.3 0.2-3.1-0.7-4.2-1.2-1.6-5.6-2.7-7.5-3.2zm-29.7 15.8c0.8 2.1 2.6 3.8 3.8 5.7 0.4 0.6 0.9 1.7 1.7 1.9 1.2 0.4 4.1-2.5 5.1-3.3 4.9-3.3 10.8-5.9 15.2-9.7-2-1.2-4.9-4.4-7.2-4.7-1.5-0.3-4.2 1.7-5.5 2.4-4.4 2.5-8.7 5.3-13.1 7.7zm39-8.4c0.1 2.1 0.2 4.4-0.3 6.4-0.2 0.9-1.3 2.2-0.8 3.1 0.3 0.8 1.5 1.3 2.2 1.7 1.9 1.2 3.8 2.3 5.7 3.6 3.2 2.1 6.3 4.4 9.3 6.8 0.9 0.8 2.4 2.5 3.8 2.4 1.5-0.1 2.8-2.1 3.9-3 0.8-0.7 2-1.6 2.4-2.6 0.7-1.8-4.2-4.5-5.4-5.4-4.4-3.2-9-6.1-13.6-9-2.2-1.4-4.7-3.2-7.2-4zm-20.9 9.1c1.8 0.5 3.6 1.7 5.5 2 2.7 0.4 6.8-3.3 4.9-6.2-0.4-0.6-1.5-1.2-2.2-1-2 0.4-7.2 3.5-8.2 5.2zm-22 1.8l6.2 8h0.2l1.8-1.4-3.8-5.9-1.7-1.9zm31.1-0.3v0.3l0.9-0.3zm-32.4 1.2c-1.8 1.5-6.4 3.4-7.1 5.7-0.3 0.9 0.6 1.6 1.2 2.2 1.2 1.2 4 5.2 5.9 4.9 2.1-0.4 4.5-3.5 6.3-4.7-0.7-2.5-4.3-6.5-6.3-8.1z"/>
			</g>
			<g id="g26">
				<text id="tspan24" style="transform: matrix(.265,0,0,.265,1047.013,70.775)" >
					<tspan x="-166.3" y="0" class="t4">DOJÔ
</tspan>
				</text>
				<text id="tspan25" style="transform: matrix(.265,0,0,.265,1046.259,105.107)" >
					<tspan x="-270.7" y="0" class="t2">UEMURA
</tspan>
				</text>
				<text id="tspan26" style="transform: matrix(.265,0,0,.265,1048.889,120.953)" >
					<tspan x="-128.3" y="0" class="t3">JIU JITSU
</tspan>
				</text>
			</g>
		</g>
		<path id="rect27" fill-rule="evenodd" class="s7" d="m899.2 159.3h297v210h-297z"/>
		<g id="g31">
			<g id="g28">
				<path id="path27" class="s0" d="m1080.8 187.1c-3.8 0.3-7.4 1.5-11.2 2-4.9 0.6-9.8 0.6-14.7 1.1-6 0.6-12.3-0.1-18.3-0.1-5.5-0.1-11.2-0.8-16.6-1.8-1.2-0.2-5-1.7-6-0.9-0.8 0.6 0.6 2.7 0.9 3.3 0.7 1.5 1.3 4.3 2.7 5.2 1 0.7 2.6 0.7 3.8 0.9 8.5 1.2 17.2 1.2 25.8 1.2 6.3 0 12.6 0.2 18.8-0.5 3.3-0.4 7.9 0 10.8-1.5 0.8-0.4 1.1-1.5 1.4-2.3 1-2.1 2.4-4.3 2.6-6.6zm-57.6 11.6l1 3 4.9 0.6-0.2 5.2h-7.5l-0.2 4.5h7.4l-0.6 14.5 5.6 0.5 0.2-15h27.5l0.2 14.8 5.7-0.3c-0.1-4.5 0.3-10.1-0.7-14.5h7.5v-4.5h-7.5l-0.5-5.2 5-0.6 0.9-3-26.7 0.9zm37.6 3.6l0.2 5.2h-26.9l0.2-5.2zm-22 27.9c-1.8-1.8-6.2-1.2-8.6-1.4-6.8-0.5-13.5-1.3-20.2-2.7q-3.1-0.6-6.1-1.4c-0.7-0.2-1.7-0.6-2.3 0.1-0.6 1-0.2 3.3-0.2 4.5 0 1.4-0.5 4.3 0.3 5.5 0.6 1 2.5 1.3 3.6 1.5 3.4 0.8 6.9 1.4 10.4 1.9 2.1 0.3 5.7 1.4 7.7 0.5 5.3-2.4 10.1-6 15.4-8.5zm-1.8-3c0.7 1.5 2.3 2.4 3.6 3.3 2.9 2 6 4.8 9.3 6 0-2.5 1-6.4 0.1-8.8-0.3-0.7-1.1-1.2-1.7-1.7-3.7-3-7.4-0.3-11.3 1.2zm22.9 1.8c0.1 3.5 3.9 4.5 6.5 6.1 1.9 1.1 4.1 3 6.2 3.6 1.4 0.4 3.1-0.2 4.5-0.3 3.6-0.4 7.3-1 10.9-1.7 1.5-0.4 3.9-0.5 5.1-1.5 1.6-1.3 0.9-6.6 0.7-8.4-0.1-0.8 0-2-0.9-2.4-0.8-0.3-1.9 0.2-2.7 0.4-1.8 0.5-3.7 1-5.6 1.3q-4.9 1-9.8 1.6c-4.9 0.6-9.9 1.3-14.9 1.3zm-11.8-4.3v0.3l2 1.3 0.3-1.1zm2.7 0.4l-0.3 13v6.3c2.3-0.5 6.2-1.6 7.6-3.6 1.4-2.1 1.1-5.8 0.9-8.2-0.2-1.3 0.2-3.1-0.7-4.2-1.2-1.6-5.6-2.7-7.5-3.3zm-29.7 15.9c0.8 2.1 2.6 3.8 3.8 5.7 0.4 0.6 0.9 1.7 1.7 1.9 1.2 0.4 4.1-2.6 5.1-3.3 4.9-3.3 10.8-5.9 15.2-9.7-2-1.3-4.9-4.4-7.2-4.8-1.5-0.2-4.2 1.8-5.5 2.5-4.4 2.4-8.7 5.2-13.1 7.7zm39-8.4c0.1 2.1 0.2 4.4-0.3 6.4-0.2 0.8-1.3 2.2-0.8 3.1 0.3 0.8 1.5 1.3 2.2 1.7 1.9 1.1 3.8 2.3 5.7 3.6 3.2 2.1 6.3 4.4 9.3 6.8 0.9 0.8 2.4 2.5 3.8 2.4 1.5-0.2 2.8-2.1 3.9-3 0.8-0.7 2-1.6 2.4-2.6 0.7-1.8-4.2-4.5-5.4-5.4-4.4-3.2-9-6.1-13.6-9-2.2-1.4-4.7-3.2-7.2-4zm-20.9 9.1c1.8 0.5 3.6 1.6 5.5 2 2.7 0.4 6.8-3.4 4.9-6.2-0.4-0.6-1.5-1.2-2.2-1.1-2 0.4-7.2 3.5-8.2 5.3zm-22 1.8l6.2 7.9h0.2l1.8-1.3-3.8-5.9-1.7-2zm31.1-0.2v0.2l0.9-0.2zm-32.4 1.1c-1.8 1.6-6.4 3.5-7.1 5.8-0.3 0.9 0.6 1.6 1.2 2.2 1.2 1.2 4 5.1 5.9 4.8 2.1-0.3 4.5-3.4 6.3-4.6-0.7-2.5-4.3-6.6-6.3-8.2z"/>
			</g>
			<g id="g30">
				<text id="tspan28" style="transform: matrix(.265,0,0,.265,1047.013,288.053)" >
					<tspan x="-166.3" y="0" class="t2">DOJÔ
</tspan>
				</text>
				<text id="tspan29" style="transform: matrix(.265,0,0,.265,1046.259,322.385)" >
					<tspan x="-270.7" y="0" class="t4">UEMURA
</tspan>
				</text>
				<text id="tspan30" style="transform: matrix(.265,0,0,.265,1048.889,338.23)" >
					<tspan x="-128.3" y="0" class="t5">JIU JITSU
</tspan>
				</text>
			</g>
		</g>
	</g>
</svg>